<svg width="1719" height="1230" viewBox="0 0 1719 1230" fill="none" xmlns="http://www.w3.org/2000/svg">
<path d="M0 1011.71L212.226 1011.07L424.452 1010.83L848.93 1010.38L1273.41 1010.83L1485.63 1011.07L1697.86 1011.71L1485.63 1012.37L1273.41 1012.58L848.93 1013.03L424.452 1012.58L212.226 1012.34L0 1011.71Z" fill="#263238"/>
<path d="M848.93 1229.78C1279.33 1229.78 1628.24 1203.39 1628.24 1170.83C1628.24 1138.27 1279.33 1111.88 848.93 1111.88C418.53 1111.88 69.6211 1138.27 69.6211 1170.83C69.6211 1203.39 418.53 1229.78 848.93 1229.78Z" fill="#EBEBEB"/>
<path d="M229.195 710.455C219.665 701.111 207.356 689.834 192.77 693.857C179.084 697.643 173.816 712.6 171.38 725.068C168.204 741.136 165.742 757.364 163.2 773.538C160.659 789.713 158.197 806.231 155.841 822.617C154.518 831.856 153.194 841.148 151.923 850.333C151.262 854.94 150.626 859.572 149.991 864.178C149.356 868.784 148.614 873.258 148.35 877.811C148.35 879.267 150.573 879.479 150.997 878.103C152.744 870.399 153.485 862.378 154.623 854.569L158.012 830.956C160.288 815.337 162.671 799.719 165.027 784.101C167.383 768.482 169.818 752.864 172.307 737.245C174.425 724.009 175.404 707.596 187.158 698.861C190.333 696.679 194.013 695.345 197.849 694.984C201.685 694.622 205.549 695.246 209.076 696.796C216.806 699.761 222.974 705.267 229.01 710.747C229.046 710.754 229.084 710.75 229.119 710.735C229.153 710.72 229.182 710.696 229.202 710.664C229.222 710.633 229.232 710.596 229.231 710.559C229.23 710.522 229.217 710.486 229.195 710.455Z" fill="#263238"/>
<path d="M216.251 700.899C216.251 700.899 196.794 693.911 187.132 708.126C177.47 722.341 189.012 758.423 277.719 778.886C275.071 751.207 267.833 724.163 256.303 698.861C237.429 657.247 203.412 672.945 216.251 700.899Z" fill="#E78A53"/>
<path d="M272.557 772.983C271.198 770.503 269.705 768.099 268.083 765.782C266.601 763.506 265.092 761.229 263.583 758.952L260.115 753.87C260.115 753.473 260.115 753.049 260.274 752.626L260.592 750.296C260.803 748.655 261.042 746.987 261.28 745.319C261.518 743.652 261.809 742.037 262.127 740.369C262.321 738.567 262.711 736.792 263.292 735.075C263.292 734.81 262.921 734.678 262.895 735.075C262.708 736.074 262.442 737.056 262.101 738.013C261.889 738.754 261.704 739.496 261.518 740.237C261.068 741.931 260.671 743.625 260.301 745.319C259.93 747.014 259.639 748.443 259.374 750.031C259.374 750.773 259.136 751.54 259.03 752.308C257.442 750.031 255.853 747.808 254.186 745.611C249.473 739.416 244.497 733.433 239.335 727.61C239.335 727.61 239.335 727.61 239.335 727.451C239.785 718.133 239.573 708.92 241.638 699.735C241.638 699.496 241.32 699.364 241.267 699.602C238.91 708.224 237.787 717.137 237.932 726.074C236.105 724.009 234.226 721.945 232.346 719.933C228.005 715.274 223.61 710.694 219.11 706.22C218.925 706.035 218.66 706.22 218.819 706.511C226.31 714.453 233.405 722.924 240.314 731.448C234.898 731.373 229.482 731.577 224.087 732.057C218.078 732.507 212.121 733.275 206.139 734.095C205.874 734.095 205.953 734.519 206.139 734.492C212.08 733.637 218.062 733.098 224.06 732.878C229.858 732.639 235.602 732.878 241.4 732.878C245.132 737.51 248.838 742.196 252.465 746.881H251.644C250.294 746.881 248.997 746.881 247.568 746.881C244.92 746.881 242.273 747.119 239.626 747.331C234.114 747.781 228.64 748.603 223.24 749.793C223.199 749.808 223.164 749.835 223.14 749.871C223.115 749.906 223.102 749.948 223.102 749.992C223.102 750.035 223.115 750.077 223.14 750.113C223.164 750.148 223.199 750.175 223.24 750.19C228.693 749.581 234.146 749.052 239.626 748.867C242.273 748.867 244.92 748.867 247.568 748.867H251.644C252.392 748.955 253.15 748.883 253.868 748.655C256.25 751.752 258.659 754.849 261.015 757.973C262.895 760.435 264.748 762.95 266.574 765.465C268.401 767.979 270.122 770.759 272.186 773.274C272.372 773.38 272.636 773.168 272.557 772.983Z" fill="#263238"/>
<path d="M224.643 721.071C221.503 720.648 218.333 720.489 215.166 720.594C211.989 720.594 208.813 720.594 205.662 720.806C205.63 720.794 205.596 720.79 205.562 720.794C205.528 720.799 205.496 720.811 205.468 720.83C205.44 720.85 205.417 720.876 205.401 720.906C205.385 720.937 205.377 720.97 205.377 721.004C205.377 721.038 205.385 721.072 205.401 721.102C205.417 721.133 205.44 721.159 205.468 721.178C205.496 721.198 205.528 721.21 205.562 721.214C205.596 721.219 205.63 721.215 205.662 721.203C208.866 720.965 212.069 720.912 215.298 720.965C218.528 721.018 221.493 721.309 224.616 721.229C224.722 721.203 224.749 721.071 224.643 721.071Z" fill="#263238"/>
<path d="M252.491 728.218C252.835 725.174 253.232 722.13 253.867 719.165C253.867 718.874 253.523 718.768 253.47 719.165C253.02 722.156 252.438 725.121 252.014 728.112C251.776 729.595 251.591 731.104 251.405 732.586C251.125 733.98 251.001 735.4 251.035 736.822C251.035 736.892 251.063 736.959 251.112 737.009C251.162 737.058 251.229 737.086 251.3 737.086C251.37 737.086 251.437 737.058 251.487 737.009C251.536 736.959 251.564 736.892 251.564 736.822C251.822 735.432 251.972 734.025 252.014 732.613C252.147 731.077 252.306 729.648 252.491 728.218Z" fill="#263238"/>
<path d="M246.641 694.652C245.873 697.591 245.106 700.582 244.55 703.573C244.285 705.109 244.047 706.617 243.835 708.153C243.567 709.637 243.469 711.147 243.544 712.653C243.544 712.653 243.729 712.653 243.782 712.653C244.131 711.254 244.362 709.829 244.47 708.391C244.682 706.909 244.894 705.453 245.159 703.97C245.688 700.873 246.244 697.829 247.038 694.784C247.091 694.52 246.72 694.387 246.641 694.652Z" fill="#263238"/>
<path d="M131.144 874.555C130.667 868.97 130.111 863.384 129.529 857.799C128.364 846.751 127.032 835.721 125.532 824.709C124.049 813.749 122.646 802.737 120.873 791.804C120.213 786.724 119.078 781.716 117.484 776.847C116.908 774.761 115.861 772.834 114.425 771.214C112.989 769.595 111.201 768.325 109.199 767.503C98.7686 763.902 91.7271 774.73 87.5181 782.38C87.3857 782.618 87.7298 782.777 87.8622 782.565C90.5094 778.965 97.3656 768.773 105.281 769.329C110.575 769.647 114.864 773.406 117.431 786.695C123.811 819.785 129.556 886.971 130.217 891.365C130.562 893.668 132.203 893.589 132.229 891.074C132.256 885.515 131.541 880.009 131.144 874.555Z" fill="#263238"/>
<path d="M90.3239 778.277C90.3239 778.277 99.4567 746.06 79.2851 762.155C45.7186 788.865 44.5273 847.289 44.5273 847.289C44.5273 847.289 104.195 812.69 111.634 789.765C122.673 755.722 90.3239 778.277 90.3239 778.277Z" fill="#E78A53"/>
<path d="M101.627 794.16C96.9413 795.113 92.2029 795.722 87.4644 796.41L80.7405 797.363L76.1873 797.892C80.6346 791.777 85.1084 785.662 89.4233 779.362C89.5821 779.124 89.2115 778.885 89.0262 779.071C85.4969 782.729 82.1655 786.573 79.0463 790.586L76.3991 783.121C75.3667 780.236 74.2813 777.35 73.5401 774.385C73.5401 774.121 73.0901 774.385 73.1695 774.385C73.9901 777.35 74.546 780.368 75.3402 783.306C76.1343 786.245 76.9814 788.998 77.9874 791.777C75.8167 794.61 73.6989 797.522 71.6606 800.46C70.6546 797.548 69.3575 794.742 68.4575 791.777C68.4575 791.539 68.0074 791.645 68.0869 791.777C69.1457 795.06 69.7281 798.448 70.7341 801.731C69.3575 803.743 68.0075 805.755 66.6839 807.766C64.2749 811.499 61.9983 815.285 59.7747 819.096C59.6062 819.174 59.4667 819.303 59.3762 819.464C59.2858 819.626 59.2492 819.813 59.2717 819.997C55.4862 826.509 51.9125 833.232 48.3652 839.824C48.3652 840.036 48.6035 840.248 48.7094 840.009C52.2566 833.418 56.2009 826.985 60.3041 820.685C60.932 820.488 61.5804 820.364 62.2366 820.314L64.3014 819.864L68.9075 818.752C71.9253 817.985 74.9166 817.27 78.0139 816.74C78.2521 816.74 78.0139 816.317 77.8815 816.37C74.2813 817.058 70.6547 817.455 67.0015 817.879C65.2808 818.09 63.5602 818.302 61.8395 818.567H61.6012C63.7455 815.311 65.9162 812.055 68.1133 808.878C70.3105 805.702 72.5077 802.604 74.7578 799.507C76.8226 799.216 78.8874 798.687 80.9258 798.289L87.8614 796.939C92.4676 796.039 97.0737 794.98 101.706 794.292C101.998 794.425 101.892 794.16 101.627 794.16Z" fill="#263238"/>
<path d="M65.7568 797.257L64.9627 794.61C64.4143 792.87 63.9548 791.103 63.5861 789.316C63.5861 789.077 63.1626 789.183 63.2155 789.316C63.5861 791.142 64.0361 792.969 64.4332 794.769C64.823 796.57 65.345 798.339 65.9951 800.063C66.0376 800.134 66.1028 800.189 66.1803 800.219C66.2578 800.249 66.343 800.252 66.4224 800.228C66.5017 800.203 66.5706 800.153 66.6179 800.085C66.6652 800.016 66.6883 799.934 66.6833 799.851C66.4186 799.057 66.0745 798.157 65.7568 797.257Z" fill="#263238"/>
<path d="M107.715 786.615C105.068 787.039 102.236 787.224 99.509 787.463C96.7824 787.701 94.0293 788.071 91.3027 788.495C91.1439 788.495 91.1439 788.733 91.3027 788.733C93.9499 788.548 96.7824 788.336 99.509 787.966C102.236 787.595 104.962 787.198 107.715 787.013C108.007 787.013 107.98 786.589 107.715 786.615Z" fill="#263238"/>
<path d="M175.061 833.868C174.002 810.044 172.414 786.484 170.11 762.871C168.919 751.09 167.596 739.337 165.928 727.636C164.452 716.138 162.188 704.755 159.151 693.567C157.03 684.869 153.167 676.692 147.795 669.53C145.135 666.056 141.636 663.315 137.625 661.564C133.615 659.814 129.226 659.112 124.87 659.524C114.493 660.795 106.128 667.333 98.9008 674.454C90.8004 682.396 83.3617 691.131 75.8437 699.655C73.9377 701.808 72.0582 703.979 70.2052 706.168C70.0199 706.353 70.2052 706.618 70.4964 706.432C77.8291 697.988 85.453 689.808 93.4476 681.972C100.833 674.719 108.431 666.804 118.649 663.812C123.395 662.297 128.476 662.178 133.288 663.468C137.109 664.689 140.553 666.867 143.294 669.795C148.744 676.11 152.609 683.633 154.571 691.74C160.951 713.527 163.228 736.399 165.584 758.9C167.94 781.401 169.634 804.696 170.878 827.727C172.122 850.758 172.943 873.921 175.167 896.951C175.431 899.784 175.802 902.616 176.173 905.449C176.411 907.355 179.376 907.355 179.217 905.449C177.205 881.518 176.12 857.693 175.061 833.868Z" fill="#263238"/>
<path d="M97.603 676.889C97.603 676.889 111.13 651.82 95.1411 643.772C79.152 635.725 25.6521 695.525 9.92773 782.936C9.92773 782.936 96.4382 744.684 125.796 706.537C155.153 668.391 121.878 660 97.603 676.889Z" fill="#E78A53"/>
<path d="M110.362 697.273C100.646 697.273 90.9576 696.532 81.2423 696.611L86.5367 690.337C89.259 687.568 91.7969 684.623 94.1342 681.522C94.1342 681.31 93.9754 681.019 93.7901 681.178C91.1977 683.462 88.7736 685.93 86.5367 688.564L79.2569 696.346C75.5509 700.37 71.9242 704.447 68.2711 708.55V702.276C68.2711 698.967 68.2711 695.685 68.2711 692.376C68.2711 685.705 68.2711 678.981 68.774 672.31C68.774 672.045 68.4034 672.072 68.3769 672.31C67.9269 679.007 67.2122 685.705 66.8945 692.402C66.7357 695.711 66.6563 698.994 66.6033 702.303C66.6033 703.997 66.6033 705.718 66.6033 707.412C66.6033 708.338 66.6033 709.318 66.6033 710.271L64.8826 712.177C57.1263 721.045 49.7407 730.231 42.5667 739.549C42.5667 739.046 42.5667 738.516 42.5667 738.013C42.5667 736.981 42.3285 735.948 42.2226 734.916C41.9844 732.692 41.6667 730.469 41.3226 728.245C40.9784 726.022 40.6872 724.089 40.3431 721.998C39.8458 719.662 39.4659 717.303 39.2048 714.93C39.2167 714.898 39.2207 714.863 39.2164 714.829C39.2121 714.796 39.1996 714.763 39.1801 714.735C39.1606 714.707 39.1346 714.684 39.1043 714.668C39.0741 714.653 39.0404 714.644 39.0063 714.644C38.9721 714.644 38.9385 714.653 38.9082 714.668C38.8779 714.684 38.8519 714.707 38.8324 714.735C38.8129 714.763 38.8005 714.796 38.7962 714.829C38.7919 714.863 38.7958 714.898 38.8077 714.93C39.2132 717.286 39.4872 719.664 39.6283 722.051C39.8137 724.195 40.0254 726.339 40.2107 728.483C40.396 730.628 40.6078 732.772 40.8196 734.89C40.8196 735.922 41.0049 736.954 41.1373 737.987C41.1373 738.49 41.1373 739.019 41.3226 739.522C41.3532 739.954 41.4896 740.373 41.7196 740.74L38.04 745.584C33.1427 752.07 28.3248 758.635 23.5069 765.2C23.3481 765.385 23.6393 765.677 23.7981 765.465C28.3513 759.509 33.0368 753.685 37.8018 747.887C41.349 748.046 44.9757 747.887 48.5494 747.729C52.1231 747.57 56.041 747.729 59.8 747.729C60.0647 747.729 60.0383 747.331 59.8 747.331C56.041 747.331 52.282 747.331 48.5494 747.331C44.8169 747.331 41.6402 747.331 38.1989 747.331C42.3814 742.222 46.6169 737.193 50.8525 732.137L55.5115 726.63C56.9497 726.829 58.4042 726.882 59.853 726.789H64.962L74.5449 726.657C81.1364 726.657 87.7809 726.313 94.346 726.313C94.3986 726.313 94.4491 726.292 94.4864 726.255C94.5236 726.217 94.5445 726.167 94.5445 726.114C94.5445 726.062 94.5236 726.011 94.4864 725.974C94.4491 725.937 94.3986 725.916 94.346 725.916C87.728 725.916 81.11 725.545 74.5184 725.386C71.3153 725.386 68.1122 725.174 64.9091 725.148H59.8C58.8206 725.148 57.8411 725.148 56.8351 725.148C60.4706 720.842 64.1061 716.536 67.7416 712.23C67.839 712.207 67.9297 712.162 68.0063 712.097C71.5536 707.915 75.0744 703.732 78.5951 699.602C79.0716 699.02 79.5746 698.464 80.0776 697.908C90.1634 698.226 100.223 697.564 110.282 697.749C110.345 697.76 110.41 697.745 110.462 697.708C110.514 697.67 110.55 697.614 110.56 697.551C110.571 697.488 110.556 697.423 110.518 697.371C110.481 697.319 110.425 697.283 110.362 697.273Z" fill="#263238"/>
<path d="M105.334 714.453H102.977C102.739 714.453 102.766 714.797 102.977 714.824H105.334C105.598 714.744 105.598 714.453 105.334 714.453Z" fill="#263238"/>
<path d="M100.091 714.479C96.9942 714.479 93.8705 714.479 90.7468 714.294L86.0878 714.135C84.6466 713.95 83.1876 713.95 81.7464 714.135C81.5875 714.135 81.7464 714.4 81.7464 714.427C83.1828 714.718 84.6507 714.825 86.1142 714.744H90.7733C93.897 714.744 96.9942 714.744 100.118 714.744C100.383 714.877 100.356 714.479 100.091 714.479Z" fill="#263238"/>
<path d="M72.9038 743.678C66.5846 742.629 60.1959 742.054 53.791 741.957V742.089C60.1443 742.698 66.4976 743.042 72.8244 744.075C73.0626 744.101 73.3009 743.704 72.9038 743.678Z" fill="#263238"/>
<path d="M46.8297 715.856C46.8297 715.3 46.8297 714.744 46.618 714.188C46.4591 712.917 46.2738 711.541 46.0621 710.429C45.6915 708.046 45.2944 705.69 44.8443 703.334C44.8293 703.294 44.8022 703.259 44.7667 703.234C44.7312 703.209 44.689 703.196 44.6458 703.196C44.6026 703.196 44.5604 703.209 44.5249 703.234C44.4894 703.259 44.4623 703.294 44.4473 703.334C44.7385 705.77 45.0032 708.232 45.2414 710.694C45.2414 711.885 45.4267 713.102 45.5326 714.294C45.4968 715.453 45.6671 716.609 46.0356 717.709C46.0712 717.788 46.1288 717.855 46.2016 717.902C46.2744 717.949 46.3592 717.974 46.4459 717.974C46.5326 717.974 46.6174 717.949 46.6902 717.902C46.763 717.855 46.8206 717.788 46.8562 717.709C46.9738 717.096 46.9648 716.465 46.8297 715.856Z" fill="#263238"/>
<path d="M174.212 644.699C171.115 638.928 167.171 631.463 159.441 631.807C153.061 632.204 150.176 638.717 148.852 644.09C144.643 660.741 144.326 678.292 143.558 695.367C141.837 731.421 140.275 767.503 140.037 803.611C140.037 813.617 140.037 823.623 140.037 833.63C140.037 843.822 140.037 854.093 140.752 864.284C140.752 864.481 140.83 864.67 140.969 864.809C141.108 864.948 141.296 865.026 141.493 865.026C141.69 865.026 141.878 864.948 142.017 864.809C142.156 864.67 142.234 864.481 142.234 864.284C142.234 855.549 141.996 846.813 141.97 838.077C141.943 829.341 141.97 821.029 142.128 812.532C142.393 795.272 142.852 778.021 143.505 760.779C144.14 743.625 144.908 726.498 145.623 709.37C145.993 700.793 146.337 692.243 146.735 683.666C147.132 675.089 147.476 667.068 148.429 658.835C148.958 654.203 149.62 649.57 150.599 645.017C151.081 641.635 152.462 638.445 154.597 635.778C156.074 634.327 158.019 633.448 160.085 633.297C162.15 633.147 164.202 633.735 165.874 634.958C169.365 637.515 172.107 640.961 173.815 644.938C173.895 645.149 174.318 644.937 174.212 644.699Z" fill="#263238"/>
<path d="M172.122 641.946C172.122 641.946 165.768 619.498 179.799 630.722C203.173 649.411 204.02 690.019 204.02 690.019C204.02 690.019 162.459 665.877 157.271 649.967C149.594 626.248 172.122 641.946 172.122 641.946Z" fill="#E78A53"/>
<path d="M195.258 673.368C194.887 672.759 194.49 672.15 194.093 671.542C194.146 670.899 194.146 670.252 194.093 669.609C194.093 668.656 194.093 667.677 194.093 666.724C194.093 664.818 194.093 662.938 194.305 661.032C194.305 660.794 193.908 660.794 193.908 661.032C193.802 662.797 193.722 664.65 193.669 666.591V669.397C193.669 669.768 193.669 670.165 193.669 670.589C192.028 667.941 190.36 665.559 188.613 663.071L187.078 660.953C186.879 658.521 186.879 656.078 187.078 653.647C187.078 650.999 187.078 648.352 187.237 645.705C187.237 645.467 186.84 645.467 186.84 645.705C186.84 648.352 186.628 650.999 186.496 653.832C186.337 655.76 186.284 657.695 186.337 659.629C182.313 654.176 178.077 648.908 173.763 643.746C173.604 643.587 173.313 643.746 173.445 644.011C176.092 647.373 178.739 650.841 181.175 654.361C176.277 653.223 171.327 652.561 166.35 651.846C166.086 651.846 166.006 652.191 166.35 652.217C171.645 653.011 176.78 654.335 181.969 655.5C183.954 658.306 185.94 661.112 187.899 663.944C188.693 665.082 189.46 666.274 190.255 667.412H189.778L188.163 667.2C187.025 667.068 185.86 666.962 184.695 666.883C182.313 666.697 179.904 666.565 177.522 666.433C177.257 666.433 177.257 666.83 177.522 666.83C179.878 666.83 182.234 667.068 184.59 667.306L188.296 667.756L189.937 667.968H190.413C191.737 669.953 193.061 671.912 194.411 673.871C196.74 677.339 198.831 681.045 201.346 684.46C201.374 684.502 201.418 684.531 201.468 684.541C201.517 684.551 201.569 684.541 201.611 684.513C201.653 684.485 201.682 684.441 201.692 684.391C201.702 684.342 201.692 684.29 201.664 684.248C199.744 680.499 197.605 676.866 195.258 673.368Z" fill="#263238"/>
<path d="M184.908 648.034C184.908 647.161 184.908 646.287 184.908 645.387C184.86 643.549 184.931 641.71 185.12 639.881C185.12 639.59 184.749 639.563 184.723 639.881C184.723 641.681 184.538 643.507 184.458 645.308C184.458 646.234 184.458 647.134 184.458 647.955V649.225C184.379 649.654 184.379 650.094 184.458 650.523C184.472 650.557 184.496 650.586 184.526 650.607C184.557 650.628 184.593 650.639 184.63 650.639C184.667 650.639 184.704 650.628 184.734 650.607C184.765 650.586 184.789 650.557 184.802 650.523C184.855 650.118 184.855 649.709 184.802 649.305C184.935 648.934 184.908 648.564 184.908 648.034Z" fill="#263238"/>
<path d="M179.773 657.326C178.237 657.061 176.649 656.982 175.087 656.849C173.525 656.717 171.672 656.558 169.951 656.32C169.919 656.308 169.885 656.304 169.851 656.308C169.817 656.313 169.785 656.325 169.757 656.345C169.729 656.364 169.706 656.39 169.69 656.42C169.674 656.451 169.666 656.484 169.666 656.518C169.666 656.553 169.674 656.586 169.69 656.617C169.706 656.647 169.729 656.673 169.757 656.692C169.785 656.712 169.817 656.724 169.851 656.729C169.885 656.733 169.919 656.729 169.951 656.717C173.234 656.929 176.49 657.511 179.773 657.643C179.815 657.643 179.855 657.627 179.885 657.597C179.915 657.567 179.931 657.527 179.931 657.485C179.931 657.443 179.915 657.402 179.885 657.372C179.855 657.343 179.815 657.326 179.773 657.326Z" fill="#263238"/>
<path d="M192.85 657.458C192.85 657.617 192.85 658.12 192.85 658.332V660.608C192.85 661.138 192.85 661.667 192.85 662.197C192.757 662.642 192.757 663.101 192.85 663.547C192.85 663.547 192.85 663.547 193.009 663.547C193.063 663.338 193.063 663.12 193.009 662.911V658.305C193.009 658.093 193.009 657.643 193.009 657.458C193.009 657.273 192.559 657.088 192.85 657.458Z" fill="#263238"/>
<path d="M175.166 764.406C166.43 757.867 158.568 748.523 146.814 747.967C137.099 747.57 130.322 754.876 126.431 763.029C124.463 767.35 122.869 771.831 121.666 776.424C119.919 782.566 118.251 788.734 116.715 794.954C113.671 807.158 111.05 819.441 108.933 831.83C107.741 838.739 106.656 845.675 105.782 852.61C104.66 859.62 103.979 866.693 103.744 873.788C103.765 874.046 103.875 874.288 104.055 874.473C104.235 874.659 104.474 874.776 104.731 874.804C104.988 874.832 105.247 874.77 105.463 874.628C105.679 874.486 105.839 874.273 105.915 874.026C107.08 868.203 107.583 862.22 108.562 856.343C109.542 850.466 110.336 844.536 111.209 838.633C113.221 826.88 115.524 815.126 118.171 803.505C120.819 792.493 123.148 781.321 126.695 770.627C129.343 762.95 133.313 753.976 141.626 751.223C154.226 747.014 165.689 757.708 174.927 764.618C175.086 764.856 175.377 764.565 175.166 764.406Z" fill="#263238"/>
<path d="M166.112 758.131C166.112 758.131 158.17 735.127 169.712 730.627C187.183 723.85 232.901 775.338 223.953 854.251C223.953 854.251 188.639 834.794 162.538 812.902C136.437 791.009 129.792 762.42 141.36 755.007C152.929 747.595 166.112 758.131 166.112 758.131Z" fill="#E78A53"/>
<path d="M218.687 837.335C217.459 834.589 216.035 831.934 214.425 829.394C212.942 826.746 211.433 824.099 209.871 821.452C206.827 816.158 203.809 811.049 200.712 805.913C200.209 805.066 199.68 804.245 199.177 803.425C199.177 803.107 199.177 802.789 199.362 802.498C199.547 801.73 199.706 800.963 199.891 800.195C200.262 798.501 200.58 796.754 200.897 794.901C201.533 791.539 202.115 788.124 203.015 784.788C203.015 784.55 202.671 784.471 202.618 784.788C201.903 788.15 200.844 791.486 199.971 794.768C199.494 796.41 198.965 798.024 198.541 799.666C198.382 800.222 198.25 800.804 198.091 801.36C194.332 795.192 190.52 789.077 186.391 783.147C186.656 782.334 186.798 781.487 186.814 780.632C186.814 779.468 187.079 778.329 187.211 777.164C187.502 774.517 187.82 771.87 188.191 769.382C188.854 764.298 189.781 759.253 190.97 754.266C190.97 754.028 190.626 753.948 190.573 754.266C189.303 759.216 187.926 764.193 187 769.223C186.523 771.711 186.099 774.173 185.755 776.662C185.597 777.932 185.464 779.176 185.332 780.421C185.332 780.791 185.332 781.162 185.332 781.559C184.061 779.759 182.685 777.985 181.467 776.264C177.417 770.97 173.261 765.676 169.025 760.593C168.866 760.408 168.549 760.593 168.707 760.831C175.935 770.108 182.566 779.834 188.561 789.95C189.726 791.803 190.864 793.656 192.003 795.536L190.864 795.377C189.382 795.192 187.9 795.112 186.417 794.954L177.496 794.186C171.54 793.709 165.584 793.365 159.627 792.73C159.389 792.73 159.31 793.074 159.627 793.101C165.637 793.789 171.619 794.768 177.628 795.615C180.567 796.039 183.505 796.436 186.47 796.807C188.708 797.268 190.988 797.498 193.273 797.495L200.288 808.904C199.759 808.877 199.229 808.877 198.7 808.904H189.779C185.941 808.904 182.129 808.904 178.29 808.904C178.026 808.904 178.078 809.301 178.29 809.301C182.182 809.301 186.047 809.54 189.938 809.752L195.444 810.069L198.091 810.281C198.892 810.47 199.726 810.47 200.527 810.281C202.512 813.51 204.524 816.74 206.483 819.97C208.442 823.199 210.163 825.926 212.069 828.891C213.825 832.034 215.825 835.035 218.051 837.865C218.448 837.706 218.898 837.574 218.687 837.335Z" fill="#263238"/>
<path d="M201.849 773.565C201.493 776.095 200.963 778.599 200.261 781.056C199.626 783.703 198.858 786.165 198.037 788.654C198.012 788.687 197.995 788.726 197.988 788.768C197.981 788.809 197.984 788.851 197.996 788.891C198.009 788.931 198.031 788.968 198.06 788.998C198.09 789.028 198.126 789.05 198.165 789.064C198.205 789.077 198.248 789.08 198.289 789.074C198.331 789.068 198.37 789.052 198.404 789.027C198.438 789.003 198.466 788.97 198.485 788.933C198.504 788.896 198.514 788.854 198.514 788.812C199.308 786.324 199.996 783.809 200.605 781.294C201.214 778.78 201.611 776.159 202.246 773.644C202.299 773.379 201.876 773.3 201.849 773.565Z" fill="#263238"/>
<path d="M175.881 788.866C175.354 788.404 174.676 788.15 173.975 788.151L170.64 787.701C168.575 787.41 166.484 787.198 164.419 786.933C160.13 786.43 155.815 786.033 151.501 785.478C151.262 785.478 151.183 785.848 151.501 785.875C155.551 786.378 159.601 786.986 163.651 787.516L169.607 788.284L172.466 788.601C173.582 788.622 174.688 788.81 175.749 789.157C175.881 789.369 176.04 789.104 175.881 788.866Z" fill="#263238"/>
<path d="M201.771 823.676C199.759 823.491 197.694 823.438 195.655 823.358H192.585H191.102C190.46 823.425 189.812 823.425 189.17 823.358C188.879 823.358 188.852 823.808 189.17 823.755C189.768 823.69 190.372 823.69 190.97 823.755H192.558L195.655 823.941C197.667 823.941 199.732 824.179 201.771 824.179C201.837 824.179 201.901 824.153 201.948 824.105C201.995 824.058 202.022 823.994 202.022 823.928C202.022 823.861 201.995 823.797 201.948 823.75C201.901 823.703 201.837 823.676 201.771 823.676Z" fill="#263238"/>
<path d="M214.238 814.835C214.476 813.697 214.688 812.532 214.9 811.367C215.323 809.091 215.72 806.814 216.144 804.564C216.129 804.523 216.102 804.488 216.066 804.464C216.031 804.439 215.988 804.426 215.945 804.426C215.902 804.426 215.86 804.439 215.824 804.464C215.789 804.488 215.762 804.523 215.747 804.564C215.244 806.787 214.767 808.985 214.264 811.208C213.999 812.32 213.761 813.432 213.523 814.544L213.205 816.079C213.038 816.6 212.975 817.149 213.02 817.694C213.02 817.879 213.338 818.038 213.47 817.853C213.91 816.903 214.171 815.88 214.238 814.835Z" fill="#263238"/>
<path d="M197.058 882.841L195.099 915.454L189.302 1011.71H90.5875L84.7636 915.454L82.8047 882.841H197.058Z" fill="#455A64"/>
<path d="M197.058 882.841L195.099 915.454H84.7636L82.8047 882.841H197.058Z" fill="#263238"/>
<path d="M206.165 859.758H73.6992V892.398H206.165V859.758Z" fill="#455A64"/>
<path d="M1531.93 700.767H797.072V1175.89H1531.93V700.767Z" fill="#E78A53"/>
<path d="M1300.36 651.556H1531.94V700.767H1287.04L1300.36 651.556Z" fill="#E78A53"/>
<g opacity="0.1">
<path d="M1531.93 700.768H797.072V1175.89H1531.93V700.768Z" fill="black"/>
<path d="M1300.36 651.556H1531.94V700.767H1287.04L1300.36 651.556Z" fill="black"/>
</g>
<path d="M912.278 388.344C910.496 380.664 910.496 372.677 912.278 364.996C913.228 368.813 913.673 372.738 913.602 376.67C913.659 380.602 913.214 384.525 912.278 388.344Z" fill="#263238"/>
<path d="M936.051 395.2C937.147 391.424 938.721 387.803 940.736 384.426C942.638 380.988 944.978 377.811 947.698 374.976C946.614 378.756 945.039 382.379 943.013 385.75C941.107 389.186 938.767 392.362 936.051 395.2Z" fill="#263238"/>
<path d="M953.23 412.963C956.061 410.241 959.228 407.892 962.654 405.974C966.014 403.986 969.606 402.422 973.349 401.315C967.613 406.673 960.733 410.656 953.23 412.963Z" fill="#263238"/>
<path d="M959.188 437.026C963 436.102 966.913 435.657 970.835 435.703C974.768 435.632 978.692 436.077 982.509 437.026C978.697 437.949 974.784 438.394 970.862 438.35C966.93 438.407 963.007 437.962 959.188 437.026Z" fill="#263238"/>
<path d="M952.33 460.824C956.105 461.911 959.726 463.477 963.104 465.483C966.535 467.407 969.71 469.755 972.555 472.472C965.023 470.16 958.109 466.179 952.33 460.824Z" fill="#263238"/>
<path d="M934.516 477.979C937.23 480.825 939.578 484 941.504 487.429C943.519 490.797 945.093 494.409 946.19 498.177C940.809 492.422 936.816 485.513 934.516 477.979Z" fill="#263238"/>
<path d="M910.477 483.935C912.26 491.615 912.26 499.602 910.477 507.283C909.528 503.466 909.083 499.541 909.154 495.609C909.096 491.677 909.541 487.754 910.477 483.935Z" fill="#263238"/>
<path d="M886.706 477.078C885.61 480.855 884.036 484.475 882.021 487.852C880.122 491.301 877.782 494.487 875.059 497.329C876.155 493.544 877.729 489.915 879.744 486.529C881.668 483.104 884.006 479.93 886.706 477.078Z" fill="#263238"/>
<path d="M869.553 459.263C866.708 461.979 863.533 464.327 860.102 466.251C856.732 468.286 853.11 469.871 849.328 470.963C855.105 465.593 862.018 461.594 869.553 459.263Z" fill="#263238"/>
<path d="M863.596 435.253C859.775 436.176 855.853 436.62 851.922 436.576C847.991 436.643 844.068 436.207 840.248 435.279C844.066 434.335 847.989 433.881 851.922 433.929C855.853 433.885 859.775 434.33 863.596 435.253Z" fill="#263238"/>
<path d="M870.426 411.481C866.651 410.379 863.031 408.805 859.652 406.795C856.227 404.872 853.053 402.533 850.201 399.833C853.977 400.92 857.597 402.486 860.975 404.492C864.415 406.403 867.591 408.752 870.426 411.481Z" fill="#263238"/>
<path d="M888.269 394.433C885.547 391.602 883.198 388.435 881.28 385.008C879.245 381.639 877.661 378.016 876.568 374.234C879.297 377.069 881.646 380.246 883.557 383.685C885.569 387.057 887.152 390.668 888.269 394.433Z" fill="#263238"/>
<path d="M1480.24 469.031H1002.28V1082.55H1480.24V469.031Z" fill="#EBEBEB"/>
<path d="M1480.21 1082.55L1002.28 1083.39H1001.44V1082.55L1000.99 469.031V467.734H1002.28L1480.21 468.026H1481.21V469.031L1480.21 1082.55ZM1480.21 1082.55L1479.23 469.031L1480.21 470.011L1002.28 470.329L1003.58 469.031L1003.1 1082.55L1002.28 1081.73L1480.21 1082.55Z" fill="#DBDBDB"/>
<path d="M1054.56 600.146L1241.25 599.67L1427.93 600.146L1241.25 600.623L1054.56 600.146Z" fill="#C7C7C7"/>
<path d="M1054.56 615.368L1241.25 614.892L1427.93 615.368L1241.25 615.845L1054.56 615.368Z" fill="#C7C7C7"/>
<path d="M1054.56 630.616L1241.25 630.14L1427.93 630.616L1241.25 631.066L1054.56 630.616Z" fill="#C7C7C7"/>
<path d="M1054.56 645.838L1241.25 645.361L1427.93 645.838L1241.25 646.314L1054.56 645.838Z" fill="#C7C7C7"/>
<path d="M1054.56 661.059L1241.25 660.582L1427.93 661.059L1241.25 661.535L1054.56 661.059Z" fill="#C7C7C7"/>
<path d="M1054.56 676.28L1241.25 675.804L1427.93 676.28L1241.25 676.757L1054.56 676.28Z" fill="#C7C7C7"/>
<path d="M1054.56 691.502L1241.25 691.025L1427.93 691.502L1241.25 691.978L1054.56 691.502Z" fill="#C7C7C7"/>
<path d="M1054.56 706.723L1241.25 706.273L1427.93 706.723L1241.25 707.2L1054.56 706.723Z" fill="#C7C7C7"/>
<path d="M1054.56 721.971L1241.25 721.494L1427.93 721.971L1241.25 722.421L1054.56 721.971Z" fill="#C7C7C7"/>
<path d="M1054.56 737.192L1241.25 736.716L1427.93 737.192L1241.25 737.642L1054.56 737.192Z" fill="#C7C7C7"/>
<path d="M1054.56 752.414L1241.25 751.938L1427.93 752.414L1241.25 752.891L1054.56 752.414Z" fill="#C7C7C7"/>
<path d="M1054.56 767.635L1241.25 767.158L1427.93 767.635L1241.25 768.111L1054.56 767.635Z" fill="#C7C7C7"/>
<path d="M1054.56 782.856L1241.25 782.38L1427.93 782.856L1241.25 783.333L1054.56 782.856Z" fill="#C7C7C7"/>
<path d="M1054.56 798.078L1241.25 797.628L1427.93 798.078L1241.25 798.554L1054.56 798.078Z" fill="#C7C7C7"/>
<path d="M1054.56 813.3L1241.25 812.85L1427.93 813.3L1241.25 813.776L1054.56 813.3Z" fill="#C7C7C7"/>
<path d="M1122.36 767.158H1094.04V831.062H1122.36V767.158Z" fill="#E78A53"/>
<path d="M1174.88 733.089H1146.55V831.062H1174.88V733.089Z" fill="#E78A53"/>
<path d="M1227.4 694.917H1199.08V831.062H1227.4V694.917Z" fill="#E78A53"/>
<path d="M1279.95 678.53H1251.62V831.062H1279.95V678.53Z" fill="#E78A53"/>
<path d="M1332.47 649.332H1304.14V831.062H1332.47V649.332Z" fill="#E78A53"/>
<path d="M1384.99 620.478H1356.66V831.062H1384.99V620.478Z" fill="#E78A53"/>
<path d="M1064.68 589.479L1065.42 649.861L1065.92 710.27C1066.27 750.534 1066.37 790.798 1066.45 831.062L1064.68 829.315H1155.5L1246.3 829.527L1337.13 830.109L1427.93 831.141L1337.13 832.174L1246.3 832.756L1155.5 832.968H1064.68H1062.93V831.221C1062.93 790.957 1063.09 750.693 1063.43 710.429L1063.96 650.02L1064.68 589.479Z" fill="#C7C7C7"/>
<path d="M1122.36 843.821H1094.04V846.389H1122.36V843.821Z" fill="#C7C7C7"/>
<path d="M1174.88 843.821H1146.55V846.389H1174.88V843.821Z" fill="#C7C7C7"/>
<path d="M1227.4 843.821H1199.08V846.389H1227.4V843.821Z" fill="#C7C7C7"/>
<path d="M1279.95 843.821H1251.62V846.389H1279.95V843.821Z" fill="#C7C7C7"/>
<path d="M1332.47 843.821H1304.14V846.389H1332.47V843.821Z" fill="#C7C7C7"/>
<path d="M1384.99 843.821H1356.66V846.389H1384.99V843.821Z" fill="#C7C7C7"/>
<path d="M1097.24 775.233C1111.07 775.019 1124.88 773.967 1138.59 772.082C1152.28 770.332 1165.88 767.884 1179.33 764.75C1206.24 758.693 1232.36 749.497 1257.13 737.351C1281.96 725.387 1304.86 709.782 1325.08 691.052L1328.92 687.584L1332.55 683.904L1339.77 676.518C1344.22 671.224 1349.01 666.3 1353.01 660.635C1361.58 649.75 1369.33 638.247 1376.2 626.222H1376.44C1363.93 651.137 1347.29 673.755 1327.23 693.116C1317.22 702.851 1306.4 711.708 1294.88 719.588C1283.42 727.547 1271.38 734.627 1258.85 740.766C1208.46 764.903 1153.04 776.699 1097.19 775.18L1097.24 775.233Z" fill="#263238"/>
<path d="M1384.27 646.076L1380.36 647.055L1375.54 627.731L1356.61 633.951L1355.37 630.113L1378.4 622.542L1384.27 646.076Z" fill="#263238"/>
<path d="M1046.57 941.82H1435.92V926.07H1046.57V941.82Z" fill="#DBDBDB"/>
<path d="M1046.6 981.582H1265.79V965.831H1046.6V981.582Z" fill="#DBDBDB"/>
<path d="M1131.65 552.576H1350.84V536.825H1131.65V552.576Z" fill="#DBDBDB"/>
<path d="M1389.33 1049.72L911.379 1049.48L911.697 435.968L1266.55 436.153L1389.57 553.106L1389.33 1049.72Z" fill="#E78A53"/>
<path opacity="0.6" d="M1389.33 1049.72L911.379 1049.48L911.697 435.968L1266.55 436.153L1389.57 553.106L1389.33 1049.72Z" fill="white"/>
<path d="M1266.55 436.152L1389.57 553.106L1266.5 553.053L1266.55 436.152Z" fill="#E78A53"/>
<path opacity="0.4" d="M1266.55 436.152L1389.57 553.106L1266.5 553.053L1266.55 436.152Z" fill="white"/>
<path d="M957.995 555.383H1223.72V539.632H957.995V555.383Z" fill="white"/>
<path d="M958.272 594.427L1224 594.566L1224.01 578.816L958.28 578.676L958.272 594.427Z" fill="white"/>
<path d="M958.214 634.188L1223.94 634.327L1223.95 618.576L958.222 618.437L958.214 634.188Z" fill="white"/>
<path d="M958.181 673.938L1347.53 674.142L1347.54 658.391L958.189 658.187L958.181 673.938Z" fill="white"/>
<path d="M958.175 713.725L1347.53 713.929L1347.53 698.178L958.184 697.974L958.175 713.725Z" fill="white"/>
<path d="M958.169 753.486L1347.52 753.689L1347.53 737.939L958.178 737.735L958.169 753.486Z" fill="white"/>
<path d="M958.138 793.247L1347.49 793.451L1347.5 777.7L958.146 777.496L958.138 793.247Z" fill="white"/>
<path d="M958.107 833.008L1347.46 833.212L1347.47 817.461L958.115 817.257L958.107 833.008Z" fill="white"/>
<path d="M958.101 872.795L1347.45 872.999L1347.46 857.248L958.109 857.044L958.101 872.795Z" fill="white"/>
<path d="M958.095 912.556L1347.45 912.76L1347.45 897.009L958.104 896.805L958.095 912.556Z" fill="white"/>
<path d="M958.062 952.291L1347.41 952.495L1347.42 936.744L958.07 936.54L958.062 952.291Z" fill="white"/>
<path d="M958.031 992.052L1347.38 992.256L1347.39 976.505L958.039 976.301L958.031 992.052Z" fill="white"/>
<path d="M798.793 1175.89H1533.66L1584.22 740.184H849.354L798.793 1175.89Z" fill="#E78A53"/>
<path d="M1357.85 695.049H1589.46L1584.22 740.184H1339.32L1357.85 695.049Z" fill="#E78A53"/>
<path d="M1480.58 561.445C1472.12 553.939 1466.24 543.951 1463.8 532.908C1460.95 519.447 1463.32 505.409 1470.41 493.623C1473.85 487.74 1478.46 482.627 1483.96 478.602C1489.45 474.576 1495.72 471.724 1502.36 470.222L1574.79 454.339L1576.83 463.71L1504.43 479.593C1499.06 480.814 1494 483.126 1489.57 486.387C1485.13 489.648 1481.41 493.787 1478.65 498.547C1472.84 508.245 1470.89 519.775 1473.19 530.843C1478.22 553.794 1501.01 569.148 1522.96 564.356L1660.08 534.337C1668.63 532.466 1676.09 527.276 1680.81 519.909C1685.53 512.542 1687.13 503.601 1685.26 495.053C1683.39 486.505 1678.2 479.05 1670.83 474.329C1663.46 469.608 1654.52 468.007 1645.98 469.878L1513.35 498.997C1506.85 500.304 1501.06 503.984 1497.12 509.321C1495.3 511.887 1494.04 514.813 1493.44 517.904C1492.84 520.995 1492.9 524.179 1493.63 527.243C1496.54 540.479 1509.01 547.785 1523.33 544.661L1637.37 519.698L1639.44 529.096L1525.4 554.032C1505.94 558.294 1488.33 547.653 1484.23 529.281C1480.13 510.91 1491.86 493.862 1511.29 489.573L1643.94 460.454C1654.88 458.285 1666.24 460.494 1675.58 466.608C1684.91 472.722 1691.47 482.252 1693.86 493.153C1696.24 504.053 1694.26 515.453 1688.33 524.906C1682.4 534.359 1673 541.109 1662.15 543.708L1525.02 573.728C1517.17 575.325 1509.05 575.045 1501.33 572.91C1493.61 570.776 1486.5 566.847 1480.58 561.445Z" fill="#455A64"/>
<path d="M1431.47 440.414C1422.44 447.22 1411.49 451 1400.18 451.215C1386.42 451.339 1373.12 446.24 1362.96 436.946C1357.87 432.417 1353.77 426.887 1350.92 420.702C1348.06 414.516 1346.51 407.809 1346.37 400.997L1345.15 326.876L1354.76 326.717L1355.98 400.839C1356.1 406.338 1357.37 411.751 1359.68 416.74C1362 421.728 1365.33 426.183 1369.45 429.825C1377.78 437.477 1388.71 441.678 1400.02 441.579C1423.53 441.182 1443.09 421.884 1442.72 399.409L1440.42 259.107C1440.28 250.36 1436.67 242.026 1430.39 235.939C1424.1 229.853 1415.66 226.512 1406.91 226.653C1398.16 226.793 1389.83 230.403 1383.74 236.688C1377.65 242.973 1374.31 251.418 1374.45 260.166L1376.65 395.941C1376.64 402.567 1379.11 408.956 1383.56 413.863C1385.71 416.159 1388.33 417.969 1391.24 419.169C1394.15 420.37 1397.28 420.935 1400.42 420.825C1413.98 420.613 1423.61 409.813 1423.37 395.174L1421.47 278.432L1431.1 278.273L1432.98 395.015C1433.33 414.895 1419.38 430.143 1400.58 430.434C1381.79 430.725 1367.38 415.981 1367.04 396.021L1364.84 260.272C1364.64 254.611 1365.58 248.966 1367.58 243.669C1369.59 238.372 1372.64 233.528 1376.54 229.421C1380.44 225.314 1385.12 222.026 1390.31 219.749C1395.5 217.472 1401.08 216.252 1406.75 216.161C1412.41 216.069 1418.04 217.108 1423.3 219.216C1428.56 221.324 1433.34 224.459 1437.37 228.438C1441.4 232.417 1444.6 237.16 1446.78 242.39C1448.96 247.619 1450.07 253.231 1450.06 258.896L1452.33 399.197C1452.36 407.227 1450.48 415.148 1446.86 422.313C1443.23 429.477 1437.96 435.68 1431.47 440.414Z" fill="#263238"/>
<path d="M292.647 349.272C288.093 375.426 278.246 406.028 286.214 432.368C292.488 452.989 309.192 468.449 327.14 479.302C366.636 503.127 424.901 513.054 459.5 475.252C473.318 460.137 479.724 425.829 461.935 410.713C452.776 402.957 441.102 399.939 430.169 395.466C423.35 392.925 417.192 388.88 412.151 383.633C407.109 378.386 403.315 372.07 401.05 365.155C391.043 336.486 396.258 317.056 397.396 287.566C397.696 284.645 397.379 281.694 396.467 278.904C395.555 276.113 394.068 273.545 392.102 271.365C387.918 266.042 382.363 261.96 376.033 259.558C370.781 256.385 364.823 254.566 358.694 254.264C345.591 253.946 331.666 264.297 320.733 270.438C309.801 276.58 304.003 283.913 301.621 296.513C298.497 314.117 295.664 331.721 292.647 349.272Z" fill="#263238"/>
<path d="M287.723 361.238C293.441 337.413 299.582 314.012 305.592 290.399C305.592 290.24 305.856 290.399 305.83 290.399C301.462 309.962 297.332 329.577 292.594 349.114C288.041 368.226 282.005 387.577 279.199 407.061C272.793 450.74 315.545 474.3 353.056 476.92C354.777 476.92 354.379 479.726 352.659 479.568C319.807 476.232 282.137 460.058 276.79 423.209C274.063 403.09 283.143 380.615 287.723 361.238Z" fill="#263238"/>
<path d="M395.649 284.998C395.649 284.899 395.688 284.805 395.758 284.736C395.827 284.666 395.921 284.627 396.02 284.627C396.118 284.627 396.212 284.666 396.282 284.736C396.351 284.805 396.39 284.899 396.39 284.998C394.405 309.219 389.825 337.28 400.864 360.019C406.311 371.203 415.013 380.477 425.827 386.624C434.404 391.468 443.961 393.003 453.173 396.074C489.228 408.039 483.219 458.019 453.861 474.061C453.252 474.405 452.643 473.346 453.252 472.975C474.086 460.322 483.801 433.717 470.962 411.666C460.638 393.93 436.204 396.021 420.453 385.194C387.787 362.666 390.461 319.888 395.649 284.998Z" fill="#263238"/>
<path d="M529.149 1166.3C523.245 1168.21 355.519 1166.04 349.139 1161.88C346.704 1160.35 345.592 1135.89 345.089 1106.29V1105.37C345.089 1099.28 344.904 1093 344.904 1086.62C344.904 1085.75 344.904 1084.88 344.904 1083.98C344.665 1041.28 345.354 996.962 345.354 996.962L457.568 998.074L454.18 1084.29V1087.71L453.518 1105.55V1107.38C453.518 1107.38 517.369 1136.92 523.854 1142.21C530.34 1147.51 535.025 1164.42 529.149 1166.3Z" fill="#AD6359"/>
<path d="M478.746 1118.87C478.296 1118.87 478.058 1118.63 478.031 1118.5L478.746 1118.87Z" fill="#E78A53"/>
<path d="M529.121 1166.3C523.245 1168.21 355.518 1166.04 349.112 1161.88C346.968 1160.53 345.829 1141.05 345.273 1115.95C376.007 1122.36 495.131 1146.45 498.387 1136.28C499.685 1132.26 489.493 1125.35 483.034 1121.43C500.638 1129.83 520.095 1139.43 523.589 1142.24C530.048 1147.51 535.025 1164.42 529.121 1166.3Z" fill="#E78A53"/>
<path d="M310.912 513.769C310.912 513.769 336.113 797.231 340.217 818.858C341.17 823.782 341.752 850.625 342.149 885.038C343.023 960.166 342.493 1095.7 342.493 1095.7H460.744C460.744 1095.7 457.223 860.896 451.981 817.746C446.74 774.597 413.306 513.874 413.306 513.874L310.912 513.769Z" fill="#37474F"/>
<path d="M455.397 1075.05C436.867 1074.68 442.161 1074.53 423.79 1074.34C414.763 1074.34 355.412 1073.76 347.021 1075.13C346.98 1075.15 346.945 1075.18 346.921 1075.21C346.896 1075.25 346.883 1075.29 346.883 1075.33C346.883 1075.38 346.896 1075.42 346.921 1075.45C346.945 1075.49 346.98 1075.52 347.021 1075.53C355.439 1076.91 414.789 1076.4 423.79 1076.33C442.32 1076.14 437.026 1075.98 455.397 1075.61C455.456 1075.59 455.508 1075.56 455.545 1075.51C455.582 1075.46 455.602 1075.39 455.602 1075.33C455.602 1075.27 455.582 1075.21 455.545 1075.16C455.508 1075.11 455.456 1075.07 455.397 1075.05Z" fill="#263238"/>
<path d="M364.969 940.842L364.492 889.459C364.492 872.862 364.492 856.237 363.619 839.639C362.004 806.02 355.2 772.983 350.383 739.76C345.565 706.538 341.514 673.183 337.835 639.776C333.732 602.318 330.105 564.807 326.24 527.323C326.24 527.058 325.817 527.058 325.843 527.323C331.429 594.27 337.649 661.191 347.021 727.716C349.332 744.269 351.847 760.788 354.565 777.271C357.212 793.948 360.071 810.652 361.395 827.568C362.719 844.484 362.877 860.658 363.063 877.203C363.221 894.357 363.389 911.502 363.566 928.638C363.936 966.705 364.307 1025.29 364.677 1063.38C364.677 1064.1 365.816 1064.07 365.816 1063.38C365.472 1029.28 365.207 974.805 364.969 940.842Z" fill="#263238"/>
<path d="M286.002 513.769C286.002 513.769 336.113 797.231 340.217 818.859C341.17 823.782 341.752 850.625 342.149 885.039L398.481 513.689L286.002 513.769Z" fill="#263238"/>
<path d="M249.498 1175.83C243.41 1174.88 94.7167 1097.19 90.9577 1090.62C89.4753 1088.16 99.5346 1065.84 112.453 1039.21L112.877 1038.36C115.524 1032.88 168.627 943.356 168.627 943.356L260.061 997.042L209.34 1087.44L208.467 1089.03C208.467 1089.03 252.066 1144.25 255.455 1151.88C258.843 1159.5 255.614 1176.84 249.498 1175.83Z" fill="#AD6359"/>
<path d="M249.498 1175.83C243.383 1174.88 94.7423 1097.19 90.9568 1090.62C89.6861 1088.53 96.8336 1071.9 106.999 1050.54C128.176 1066.66 231.205 1143.93 238.724 1135.91C240.312 1134.19 239.121 1130.2 237.029 1125.91C246.056 1137.82 254.077 1148.75 255.56 1151.88C258.816 1159.47 255.613 1176.81 249.498 1175.83Z" fill="#E78A53"/>
<path d="M222.496 1084.13L114.146 1017.19C114.146 1017.19 239.491 837.813 240.1 821.876C240.974 798.052 252.33 700.423 261.887 621.272C261.887 621.272 243.78 578.413 277.638 513.689H413.412C413.412 513.689 404.306 575.29 388.714 614.283C378.253 617.945 368.151 622.562 358.536 628.075C358.536 628.075 345.035 804.564 344.532 826.615C343.526 870.135 222.496 1084.13 222.496 1084.13Z" fill="#37474F"/>
<path d="M229.141 1059.12C213.496 1049.32 218.128 1051.92 202.378 1042.28C194.674 1037.57 144.139 1006.65 136.198 1003.53C136.156 1003.51 136.109 1003.51 136.067 1003.52C136.024 1003.54 135.987 1003.57 135.965 1003.6C135.942 1003.64 135.934 1003.69 135.943 1003.73C135.952 1003.78 135.976 1003.82 136.012 1003.84C142.524 1009.38 193.721 1039.4 201.504 1043.95C217.387 1053.29 212.966 1050.44 228.982 1059.57C229.032 1059.56 229.079 1059.54 229.118 1059.51C229.157 1059.48 229.186 1059.44 229.203 1059.39C229.219 1059.35 229.222 1059.3 229.212 1059.25C229.201 1059.2 229.176 1059.15 229.141 1059.12Z" fill="#263238"/>
<path d="M393.876 611.662C381.641 616.115 369.816 621.624 358.536 628.128C358.446 628.177 358.379 628.258 358.347 628.355C358.316 628.452 358.323 628.558 358.367 628.649C358.412 628.741 358.49 628.813 358.585 628.849C358.681 628.885 358.786 628.883 358.88 628.843C370.766 623.734 382.917 618.836 394.512 612.96C394.608 612.842 394.669 612.699 394.686 612.548C394.704 612.397 394.677 612.244 394.611 612.107C394.544 611.97 394.439 611.856 394.309 611.777C394.179 611.698 394.029 611.658 393.876 611.662Z" fill="#263238"/>
<path d="M377.251 591.994C378.416 584.9 379.369 577.805 379.898 570.631C381.134 557.293 380.992 543.862 379.475 530.553C379.475 530.461 379.438 530.374 379.374 530.309C379.309 530.245 379.222 530.208 379.13 530.208C379.039 530.208 378.952 530.245 378.887 530.309C378.823 530.374 378.786 530.461 378.786 530.553C379.093 549.059 378.004 567.562 375.53 585.905C374.207 594.694 369.759 607.983 378.998 609.333C388.237 610.683 394.458 588.5 395.596 582.411C398.532 565.091 399.199 547.463 397.581 529.97C397.581 529.547 396.814 529.467 396.84 529.97C396.84 544.106 396.02 556.442 394.828 569.678C394.272 575.793 389.349 609.704 378.707 607.215C376.933 606.818 376.06 605.045 375.742 602.371C375.788 598.858 376.268 595.363 377.171 591.968" fill="#263238"/>
<path d="M379.078 608.168C378.138 610.454 377.342 612.797 376.696 615.183C375.997 617.025 375.656 618.984 375.69 620.954C375.709 621.03 375.75 621.1 375.807 621.154C375.863 621.209 375.934 621.246 376.011 621.263C376.088 621.279 376.168 621.274 376.242 621.247C376.317 621.221 376.382 621.174 376.431 621.113C377.533 619.379 378.364 617.486 378.893 615.501C379.714 613.33 380.561 611.159 381.302 608.962C381.362 608.68 381.317 608.386 381.177 608.134C381.036 607.882 380.809 607.69 380.537 607.593C380.266 607.496 379.968 607.501 379.7 607.606C379.431 607.712 379.211 607.912 379.078 608.168Z" fill="#263238"/>
<path d="M293.599 522.24C289.472 529.333 286.058 536.817 283.407 544.583C280.685 552.327 278.665 560.301 277.372 568.407C276.604 572.431 276.339 576.508 275.889 580.558C275.439 584.608 275.386 588.738 275.625 592.815C275.798 600.978 276.747 609.106 278.457 617.089V617.354C275.333 651.591 272.086 685.811 268.715 720.012C265.345 754.214 261.974 788.425 258.603 822.644L258.259 825.848L258.1 827.462C258.097 828.053 257.98 828.637 257.756 829.183C256.843 831.228 255.808 833.217 254.659 835.139C252.488 838.872 250.238 842.551 247.988 846.205C243.488 853.528 238.926 860.817 234.302 868.07C225.09 882.577 215.771 896.978 206.321 911.379C187.605 940.207 168.545 968.823 149.459 997.413L204.865 910.426L232.369 866.853C236.958 859.582 241.493 852.293 245.976 844.987C248.2 841.307 250.423 837.628 252.567 833.921C253.573 832.121 254.738 830.109 255.426 828.627C255.6 828.18 255.69 827.704 255.691 827.224L255.85 825.609L256.168 822.406C259.415 788.204 262.786 754.011 266.28 719.827C269.774 685.643 273.304 651.468 276.869 617.301V617.539C275.196 609.446 274.309 601.211 274.221 592.947C274.036 588.817 274.433 584.688 274.645 580.585C274.857 576.481 275.519 572.378 276.392 568.328C277.862 560.208 280.05 552.235 282.931 544.503C285.754 536.753 289.327 529.296 293.599 522.24Z" fill="#263238"/>
<path d="M359.198 390.992C379.396 401.872 473.027 430.7 506.17 429.377C537.169 428.238 605.176 391.654 608.379 381.727C611.449 372.33 594.163 314.435 583.998 317.374C573.833 320.312 513.291 364.176 499.976 365.95C492.034 366.982 417.251 364.547 378.919 365.95C344.109 367.168 331.243 375.903 359.198 390.992Z" fill="#AD6359"/>
<path d="M414.788 417.517L444.993 361.926C444.993 361.926 375.451 360.841 354.988 366.294C331.878 372.435 340.058 382.918 359.62 394.486C379.183 406.055 414.788 417.517 414.788 417.517Z" fill="#E78A53"/>
<path d="M373.255 365.896C373.255 367.16 372.753 368.372 371.859 369.266C370.966 370.159 369.754 370.661 368.49 370.661C367.226 370.661 366.014 370.159 365.121 369.266C364.227 368.372 363.725 367.16 363.725 365.896C363.718 365.492 363.781 365.089 363.91 364.705C366.558 364.335 369.575 364.017 372.726 363.752C373.077 364.412 373.259 365.149 373.255 365.896ZM401.739 362.27C401.149 362.798 400.7 363.464 400.432 364.209C400.164 364.954 400.086 365.754 400.205 366.537C400.324 367.319 400.636 368.06 401.113 368.692C401.59 369.323 402.217 369.826 402.937 370.155C403.657 370.484 404.447 370.628 405.237 370.575C406.027 370.522 406.791 370.272 407.46 369.85C408.13 369.427 408.683 368.844 409.071 368.154C409.458 367.464 409.668 366.688 409.681 365.896C409.685 365.16 409.514 364.433 409.183 363.774C408.852 363.116 408.369 362.546 407.775 362.111L401.739 362.27ZM443.723 361.952H438.429C437.763 362.379 437.215 362.966 436.836 363.66C436.456 364.354 436.258 365.132 436.258 365.923C436.255 367.051 436.652 368.144 437.38 369.007C438.107 369.87 439.117 370.447 440.229 370.635L444.518 362.693C444.298 362.402 444.029 362.151 443.723 361.952ZM351.76 389.589C352.501 390.092 353.189 390.621 353.983 391.071C353.411 390.362 352.635 389.845 351.76 389.589ZM386.623 389.351C385.682 389.356 384.763 389.64 383.983 390.167C383.203 390.693 382.597 391.439 382.24 392.31C381.883 393.182 381.793 394.139 381.98 395.061C382.167 395.984 382.622 396.83 383.29 397.494C383.957 398.158 384.806 398.609 385.73 398.791C386.654 398.973 387.61 398.877 388.479 398.515C389.349 398.154 390.091 397.543 390.614 396.76C391.136 395.977 391.415 395.057 391.415 394.116C391.408 392.849 390.9 391.638 390.002 390.745C389.104 389.852 387.89 389.351 386.623 389.351ZM422.917 389.351C421.974 389.351 421.053 389.63 420.269 390.154C419.486 390.677 418.875 391.421 418.514 392.292C418.154 393.163 418.059 394.121 418.243 395.045C418.427 395.97 418.881 396.819 419.547 397.485C420.214 398.151 421.063 398.605 421.987 398.789C422.911 398.973 423.869 398.879 424.74 398.518C425.611 398.157 426.355 397.546 426.878 396.763C427.402 395.979 427.681 395.058 427.681 394.116C427.681 392.852 427.179 391.64 426.286 390.746C425.392 389.853 424.18 389.351 422.917 389.351Z" fill="white"/>
<path d="M430.832 364.414C429.481 366.188 419.793 383.342 417.781 387.127C415.769 390.913 407.324 406.267 405.551 410.343C405.551 410.502 405.71 410.661 405.816 410.502C408.304 406.849 416.854 391.363 419.052 387.577C421.249 383.792 430.408 366.559 431.149 364.547C431.149 364.361 430.911 364.308 430.832 364.414Z" fill="#263238"/>
<path opacity="0.1" d="M424.16 400.205L414.789 417.517C414.789 417.517 379.105 406.108 359.542 394.54C343.236 384.877 334.844 376.009 345.883 369.762L424.16 400.205Z" fill="black"/>
<path d="M410.844 488.885L414.947 520.89L276.207 516.522C276.207 516.522 283.222 414.261 323.195 375.691C343.208 356.42 365.153 359.252 378.389 374.341C381.724 378.18 421.062 429.562 424.238 451.269C427.018 470.408 410.844 488.885 410.844 488.885Z" fill="#E78A53"/>
<path d="M336.988 365.896C336.988 367.162 336.487 368.377 335.594 369.275C334.701 370.173 333.49 370.681 332.223 370.688C331.424 370.691 330.638 370.48 329.947 370.079C332.157 368.467 334.515 367.066 336.988 365.896ZM364.043 364.229C363.831 364.759 363.723 365.325 363.725 365.896C363.725 367.162 364.226 368.377 365.119 369.275C366.012 370.173 367.224 370.681 368.49 370.688C369.237 370.695 369.974 370.52 370.638 370.179C371.302 369.837 371.873 369.34 372.302 368.729C369.774 366.848 366.994 365.333 364.043 364.229ZM297.863 417.014C296.672 419.952 295.56 422.943 294.527 425.935C295.009 426.116 295.521 426.206 296.036 426.199C296.664 426.199 297.286 426.075 297.866 425.834C298.446 425.593 298.972 425.24 299.415 424.795C299.858 424.349 300.208 423.821 300.446 423.24C300.684 422.658 300.805 422.036 300.801 421.408C300.799 420.453 300.506 419.522 299.962 418.737C299.419 417.953 298.65 417.352 297.757 417.014H297.863ZM332.276 416.643C331.326 416.638 330.396 416.915 329.604 417.44C328.812 417.964 328.194 418.712 327.828 419.589C327.462 420.465 327.365 421.431 327.549 422.363C327.733 423.295 328.19 424.151 328.862 424.823C329.534 425.494 330.39 425.951 331.322 426.135C332.254 426.319 333.219 426.222 334.096 425.856C334.972 425.49 335.72 424.872 336.245 424.08C336.769 423.288 337.047 422.358 337.041 421.408C337.038 420.779 336.91 420.156 336.666 419.576C336.422 418.996 336.067 418.47 335.619 418.028C335.172 417.585 334.642 417.235 334.059 416.998C333.476 416.76 332.853 416.64 332.223 416.643H332.276ZM368.543 416.643C367.593 416.638 366.663 416.915 365.871 417.44C365.079 417.964 364.461 418.712 364.095 419.589C363.729 420.465 363.632 421.431 363.816 422.363C364 423.295 364.457 424.151 365.128 424.823C365.8 425.494 366.656 425.951 367.588 426.135C368.52 426.319 369.486 426.222 370.362 425.856C371.239 425.49 371.987 424.872 372.511 424.08C373.036 423.288 373.313 422.358 373.308 421.408C373.304 420.779 373.177 420.156 372.933 419.576C372.689 418.996 372.333 418.47 371.886 418.028C371.438 417.585 370.908 417.235 370.326 416.998C369.743 416.76 369.119 416.64 368.49 416.643H368.543ZM404.836 416.643C403.886 416.638 402.956 416.915 402.164 417.44C401.372 417.964 400.754 418.712 400.388 419.589C400.022 420.465 399.925 421.431 400.109 422.363C400.293 423.295 400.75 424.151 401.422 424.823C402.093 425.494 402.949 425.951 403.881 426.135C404.813 426.319 405.779 426.222 406.655 425.856C407.532 425.49 408.28 424.872 408.805 424.08C409.329 423.288 409.606 422.358 409.601 421.408C409.601 420.778 409.476 420.154 409.233 419.572C408.991 418.991 408.635 418.463 408.187 418.02C407.739 417.577 407.207 417.227 406.623 416.99C406.039 416.754 405.413 416.636 404.783 416.643H404.836ZM314.196 389.35C313.25 389.342 312.324 389.629 311.549 390.171C310.86 391.177 310.225 392.156 309.59 393.215C309.564 393.479 309.564 393.745 309.59 394.01C309.59 394.952 309.869 395.873 310.393 396.657C310.916 397.44 311.661 398.051 312.531 398.412C313.402 398.772 314.36 398.867 315.284 398.683C316.209 398.499 317.058 398.045 317.724 397.379C318.391 396.712 318.844 395.863 319.028 394.939C319.212 394.015 319.118 393.057 318.757 392.186C318.396 391.315 317.786 390.571 317.002 390.048C316.218 389.524 315.297 389.245 314.355 389.245L314.196 389.35ZM350.489 389.35C349.547 389.35 348.625 389.63 347.842 390.154C347.058 390.677 346.447 391.421 346.087 392.292C345.726 393.163 345.632 394.121 345.816 395.045C346 395.969 346.453 396.818 347.12 397.485C347.786 398.151 348.635 398.605 349.559 398.789C350.484 398.973 351.442 398.878 352.313 398.518C353.183 398.157 353.927 397.546 354.451 396.763C354.975 395.979 355.254 395.058 355.254 394.115C355.254 393.478 355.127 392.848 354.879 392.261C354.631 391.674 354.269 391.143 353.812 390.698C353.355 390.254 352.814 389.906 352.221 389.674C351.627 389.443 350.994 389.333 350.357 389.35H350.489ZM386.756 389.35C385.814 389.356 384.896 389.64 384.116 390.166C383.336 390.693 382.729 391.439 382.372 392.31C382.016 393.181 381.925 394.139 382.112 395.061C382.299 395.984 382.755 396.83 383.422 397.494C384.09 398.158 384.939 398.609 385.862 398.791C386.786 398.972 387.743 398.876 388.612 398.515C389.481 398.154 390.223 397.543 390.746 396.76C391.268 395.977 391.547 395.057 391.547 394.115C391.544 393.477 391.413 392.846 391.162 392.259C390.912 391.672 390.546 391.141 390.088 390.697C389.629 390.253 389.086 389.905 388.491 389.674C387.897 389.443 387.261 389.333 386.623 389.35H386.756ZM295.93 472.155C294.982 472.15 294.053 472.426 293.261 472.949C292.47 473.473 291.851 474.219 291.485 475.094C291.118 475.969 291.019 476.934 291.201 477.865C291.383 478.796 291.837 479.652 292.506 480.325C293.175 480.998 294.029 481.457 294.959 481.644C295.889 481.831 296.854 481.737 297.731 481.375C298.608 481.014 299.358 480.4 299.886 479.611C300.414 478.822 300.695 477.895 300.695 476.946C300.695 475.68 300.194 474.465 299.301 473.568C298.408 472.67 297.196 472.162 295.93 472.155ZM332.223 472.155C331.275 472.15 330.346 472.426 329.554 472.949C328.763 473.473 328.145 474.219 327.778 475.094C327.411 475.969 327.312 476.934 327.494 477.865C327.676 478.796 328.13 479.652 328.8 480.325C329.469 480.998 330.322 481.457 331.252 481.644C332.183 481.831 333.147 481.737 334.024 481.375C334.901 481.014 335.651 480.4 336.179 479.611C336.707 478.822 336.988 477.895 336.988 476.946C336.988 475.68 336.487 474.465 335.594 473.568C334.701 472.67 333.49 472.162 332.223 472.155ZM368.49 472.155C367.541 472.15 366.612 472.426 365.821 472.949C365.029 473.473 364.411 474.219 364.044 475.094C363.678 475.969 363.579 476.934 363.761 477.865C363.943 478.796 364.397 479.652 365.066 480.325C365.735 480.998 366.589 481.457 367.519 481.644C368.449 481.831 369.414 481.737 370.291 481.375C371.168 481.014 371.918 480.4 372.446 479.611C372.973 478.822 373.255 477.895 373.255 476.946C373.255 475.68 372.754 474.465 371.861 473.568C370.968 472.67 369.756 472.162 368.49 472.155ZM404.783 472.155C403.834 472.15 402.905 472.426 402.114 472.949C401.323 473.473 400.704 474.219 400.338 475.094C399.971 475.969 399.872 476.934 400.054 477.865C400.236 478.796 400.69 479.652 401.359 480.325C402.028 480.998 402.882 481.457 403.812 481.644C404.742 481.831 405.707 481.737 406.584 481.375C407.461 481.014 408.211 480.4 408.739 479.611C409.266 478.822 409.548 477.895 409.548 476.946C409.552 476.318 409.431 475.696 409.193 475.115C408.955 474.534 408.605 474.005 408.162 473.56C407.719 473.115 407.193 472.761 406.613 472.52C406.033 472.279 405.411 472.155 404.783 472.155ZM314.196 444.862C313.255 444.867 312.336 445.151 311.556 445.678C310.776 446.205 310.169 446.951 309.813 447.822C309.456 448.693 309.365 449.65 309.552 450.573C309.739 451.495 310.195 452.342 310.862 453.006C311.53 453.669 312.379 454.121 313.303 454.302C314.226 454.484 315.183 454.388 316.052 454.027C316.921 453.665 317.664 453.055 318.186 452.272C318.709 451.489 318.987 450.568 318.987 449.627C318.98 448.361 318.472 447.149 317.575 446.256C316.677 445.363 315.462 444.862 314.196 444.862ZM350.489 444.862C349.547 444.862 348.625 445.142 347.842 445.665C347.058 446.189 346.447 446.933 346.087 447.804C345.726 448.674 345.632 449.632 345.816 450.557C346 451.481 346.453 452.33 347.12 452.996C347.786 453.663 348.635 454.117 349.559 454.301C350.484 454.484 351.442 454.39 352.313 454.029C353.183 453.669 353.927 453.058 354.451 452.274C354.975 451.491 355.254 450.57 355.254 449.627C355.254 448.99 355.127 448.36 354.879 447.773C354.631 447.186 354.269 446.654 353.812 446.21C353.355 445.766 352.814 445.418 352.221 445.186C351.627 444.955 350.994 444.845 350.357 444.862H350.489ZM386.756 444.862C385.814 444.867 384.896 445.151 384.116 445.678C383.336 446.205 382.729 446.951 382.372 447.822C382.016 448.693 381.925 449.65 382.112 450.573C382.299 451.495 382.755 452.342 383.422 453.006C384.09 453.669 384.939 454.121 385.862 454.302C386.786 454.484 387.743 454.388 388.612 454.027C389.481 453.665 390.223 453.055 390.746 452.272C391.268 451.489 391.547 450.568 391.547 449.627C391.544 448.989 391.413 448.358 391.162 447.771C390.912 447.184 390.546 446.653 390.088 446.209C389.629 445.765 389.086 445.417 388.491 445.186C387.897 444.955 387.261 444.845 386.623 444.862H386.756ZM424.372 451.268C424.012 449.098 423.463 446.963 422.731 444.889C421.528 445.009 420.416 445.583 419.621 446.493C418.825 447.403 418.404 448.581 418.445 449.789C418.485 450.997 418.983 452.145 419.838 452.999C420.693 453.854 421.841 454.352 423.049 454.392C423.591 454.39 424.129 454.291 424.637 454.101C424.452 453.174 424.372 452.221 424.24 451.268H424.372ZM277.876 500.321C277.4 504.027 277.056 507.204 276.791 509.745C277.125 509.786 277.463 509.786 277.797 509.745C279.003 509.655 280.13 509.113 280.953 508.227C281.775 507.341 282.232 506.176 282.232 504.967C282.232 503.758 281.775 502.593 280.953 501.707C280.13 500.821 279.003 500.278 277.797 500.189L277.876 500.321ZM314.196 500.321C313.247 500.321 312.32 500.603 311.531 501.13C310.743 501.658 310.129 502.408 309.767 503.285C309.405 504.162 309.312 505.127 309.499 506.057C309.686 506.987 310.145 507.841 310.817 508.51C311.49 509.179 312.346 509.633 313.278 509.815C314.209 509.997 315.173 509.898 316.048 509.532C316.923 509.165 317.669 508.547 318.193 507.755C318.716 506.964 318.993 506.035 318.987 505.086C318.98 503.82 318.472 502.608 317.575 501.715C316.677 500.822 315.462 500.321 314.196 500.321ZM350.489 500.321C349.539 500.316 348.609 500.593 347.817 501.118C347.025 501.642 346.407 502.39 346.041 503.267C345.675 504.143 345.578 505.109 345.762 506.041C345.946 506.973 346.403 507.829 347.075 508.5C347.746 509.172 348.602 509.629 349.534 509.813C350.466 509.997 351.432 509.9 352.308 509.534C353.185 509.168 353.933 508.55 354.458 507.758C354.982 506.966 355.259 506.036 355.254 505.086C355.254 504.449 355.127 503.818 354.879 503.231C354.631 502.645 354.269 502.113 353.812 501.669C353.355 501.225 352.814 500.877 352.221 500.645C351.627 500.414 350.994 500.303 350.357 500.321H350.489ZM386.756 500.321C385.807 500.321 384.879 500.603 384.091 501.13C383.302 501.658 382.688 502.408 382.327 503.285C381.965 504.162 381.871 505.127 382.058 506.057C382.245 506.987 382.704 507.841 383.377 508.51C384.05 509.179 384.906 509.633 385.837 509.815C386.768 509.997 387.733 509.898 388.608 509.532C389.483 509.165 390.229 508.547 390.753 507.755C391.276 506.964 391.552 506.035 391.547 505.086C391.544 504.448 391.413 503.817 391.162 503.23C390.912 502.642 390.546 502.111 390.088 501.668C389.629 501.224 389.086 500.876 388.491 500.645C387.897 500.413 387.261 500.303 386.623 500.321H386.756Z" fill="white"/>
<path d="M387.841 478.032C380.432 478.538 373.07 479.591 365.816 481.182C362.216 482.029 358.695 483.035 355.228 484.121C353.48 484.65 351.707 485.127 349.933 485.603C348.083 486.158 346.171 486.478 344.242 486.556C344.207 486.556 344.173 486.57 344.148 486.595C344.123 486.62 344.109 486.653 344.109 486.688C344.109 486.724 344.123 486.757 344.148 486.782C344.173 486.807 344.207 486.821 344.242 486.821C346.057 486.953 347.88 486.953 349.695 486.821C351.476 486.638 353.244 486.346 354.989 485.947C358.643 485.127 362.269 484.121 365.922 483.3C373.255 481.579 380.614 479.832 388.079 478.641C388.318 478.588 388.318 478.006 387.841 478.032Z" fill="#263238"/>
<path d="M406 484.967C399.914 484.199 393.789 483.775 387.655 483.696C384.584 483.696 381.54 483.829 378.496 484.067C377.048 484.173 375.592 484.305 374.128 484.464C372.513 484.623 370.925 485.02 369.336 485.179C369.177 485.179 369.151 485.443 369.336 485.443C370.845 485.443 372.381 485.443 373.916 485.443H387.655C393.77 485.443 399.858 485.443 406 485.443C406.318 485.47 406.291 484.993 406 484.967Z" fill="#263238"/>
<path d="M863.702 382.865C720.753 349.44 579.295 316.641 439.329 284.469C386.703 457.013 400.892 657.724 327.088 821.321C470.037 854.746 611.485 887.545 751.434 919.717C804.087 747.173 789.898 546.542 863.702 382.865Z" fill="#EBEBEB"/>
<path d="M393.453 755.326C471.104 773.15 548.403 790.798 625.348 808.27C626.38 803.717 627.413 799.137 628.392 794.557C551.606 777.104 474.519 759.517 397.133 741.799C395.941 746.511 394.724 750.879 393.453 755.326Z" fill="#DBDBDB"/>
<path d="M402.32 721.204C479.389 738.852 556.158 756.314 632.627 773.592C633.491 768.968 634.374 764.326 635.274 759.667C558.893 742.408 482.283 725.033 405.444 707.544C404.438 712.097 403.406 716.677 402.32 721.204Z" fill="#DBDBDB"/>
<path d="M409.865 686.526C486.458 703.927 562.82 721.213 638.954 738.384C639.73 733.708 640.489 729.022 641.231 724.328C565.168 707.174 488.937 689.949 412.539 672.654C411.656 677.296 410.765 681.919 409.865 686.526Z" fill="#DBDBDB"/>
<path d="M416.297 651.397C527.991 676.634 639.332 701.721 750.321 726.657C750.991 721.91 751.635 717.18 752.253 712.468C641.265 687.532 530.082 662.498 418.706 637.367C417.859 642.053 417.091 646.712 416.297 651.397Z" fill="#DBDBDB"/>
<path d="M421.936 615.898C533.118 640.976 644.177 665.947 755.112 690.813L756.939 676.572C646.056 651.688 535.068 626.751 423.974 601.762C423.321 606.491 422.641 611.203 421.936 615.898Z" fill="#DBDBDB"/>
<path d="M426.967 580.161C537.99 605.133 648.917 630.043 759.746 654.891C760.364 650.144 760.982 645.405 761.599 640.676L428.873 565.972L426.967 580.161Z" fill="#DBDBDB"/>
<path d="M431.678 544.292L764.484 619.049C765.119 614.31 765.781 609.598 766.443 604.86L433.531 530.076C432.922 534.735 432.287 539.553 431.678 544.292Z" fill="#DBDBDB"/>
<path d="M436.338 508.395C547.273 533.314 658.332 558.295 769.514 583.337C770.238 578.625 770.962 573.931 771.685 569.254C660.203 544.106 549.02 519.081 438.138 494.18C437.556 498.927 436.956 503.666 436.338 508.395Z" fill="#DBDBDB"/>
<path d="M441.262 472.579C552.444 497.533 663.829 522.637 775.418 547.891C776.23 543.232 777.059 538.582 777.906 533.941C665.947 508.616 554.403 483.441 443.274 458.416C442.515 463.128 441.844 467.849 441.262 472.579Z" fill="#DBDBDB"/>
<path d="M446.396 436.921C557.808 462.034 669.644 487.332 781.903 512.816C782.82 508.21 783.791 503.613 784.814 499.024C672.256 473.417 560.208 448.03 448.673 422.864C447.879 427.55 447.138 432.235 446.396 436.921Z" fill="#DBDBDB"/>
<path d="M452.352 401.554C564.222 426.879 676.64 452.424 789.605 478.19C790.717 473.673 791.855 469.155 793.02 464.637C679.684 438.694 566.993 413.034 454.946 387.656C454.046 392.289 453.199 396.921 452.352 401.554Z" fill="#DBDBDB"/>
<path d="M459.234 366.611C571.705 392.218 684.838 418.064 798.632 444.147C799.955 439.7 801.279 435.279 802.682 430.911C688.394 404.598 574.899 378.603 462.199 352.925C461.22 357.372 460.214 362.005 459.234 366.611Z" fill="#DBDBDB"/>
<path d="M346.518 373.573C347.233 376.22 360.839 393.612 373.308 392.659C377.358 392.315 376.59 370.079 376.59 370.079L376.908 368.437L381.355 345.248L353.904 328.729L349.933 326.559C349.933 326.559 349.139 332.965 348.212 340.986C348.212 341.356 348.212 341.727 348.08 342.124C347.948 342.521 348.08 342.998 347.921 343.421C347.762 344.612 347.603 345.83 347.498 347.048C347.392 348.266 347.286 348.874 347.233 349.854C347.18 350.833 347.048 351.786 346.968 352.766C346.341 359.683 346.19 366.635 346.518 373.573Z" fill="#AD6359"/>
<path d="M381.38 345.248L377.092 367.511C364.591 363.527 354.141 354.816 347.973 343.236L348.237 340.986C349.164 333.044 349.958 326.559 349.958 326.559L353.929 328.729L381.38 345.248Z" fill="#263238"/>
<path d="M409.495 307.658C415.265 348.663 391.335 356.737 382.493 357.955C374.552 359.067 346.994 361.846 337.041 321.635C327.087 281.424 344.321 265.806 362.56 262.285C380.799 258.764 403.856 266.653 409.495 307.658Z" fill="#AD6359"/>
<path d="M402.638 302.125C401.688 302.064 400.743 301.949 399.806 301.781C398.786 301.787 397.792 301.462 396.973 300.854C396.754 300.617 396.622 300.313 396.598 299.991C396.574 299.669 396.659 299.348 396.841 299.081C397.265 298.59 397.813 298.223 398.428 298.018C399.043 297.813 399.702 297.778 400.335 297.916C401.671 297.99 402.929 298.567 403.856 299.531C404.057 299.759 404.188 300.042 404.231 300.343C404.274 300.644 404.228 300.952 404.099 301.228C403.969 301.503 403.762 301.735 403.503 301.895C403.243 302.054 402.943 302.134 402.638 302.125Z" fill="#263238"/>
<path d="M374.657 303.714C375.553 303.486 376.436 303.212 377.304 302.893C378.317 302.747 379.25 302.262 379.951 301.517C380.13 301.247 380.211 300.924 380.182 300.602C380.153 300.28 380.016 299.977 379.793 299.743C379.289 299.332 378.685 299.063 378.042 298.965C377.399 298.867 376.742 298.944 376.139 299.187C374.836 299.481 373.692 300.256 372.936 301.358C372.765 301.623 372.677 301.935 372.686 302.251C372.695 302.567 372.8 302.873 372.986 303.128C373.173 303.383 373.432 303.576 373.731 303.681C374.029 303.785 374.352 303.797 374.657 303.714Z" fill="#263238"/>
<path d="M381.248 311.417C381.248 311.417 381.036 311.417 381.063 311.682C381.46 314.461 381.433 317.744 378.998 318.935C378.998 318.935 378.998 319.12 378.998 319.094C382.069 318.326 382.069 313.985 381.248 311.417Z" fill="#263238"/>
<path d="M378.416 308.743C373.89 308.902 374.498 317.982 378.708 317.849C382.917 317.717 382.228 308.637 378.416 308.743Z" fill="#263238"/>
<path d="M376.67 309.352C375.928 309.908 375.214 310.887 374.261 311.046C373.308 311.205 372.249 310.331 371.481 309.458H371.322C371.322 311.179 372.196 312.926 373.969 313.058C375.743 313.19 376.802 311.549 377.093 309.775C377.305 309.723 376.987 309.114 376.67 309.352Z" fill="#263238"/>
<path d="M396.973 309.961C396.973 309.961 397.211 309.961 397.211 310.199C397.211 313.005 397.979 316.208 400.6 316.95V317.108C397.45 316.923 396.655 312.661 396.973 309.961Z" fill="#263238"/>
<path d="M399.25 306.837C403.75 306.122 404.836 315.149 400.68 315.811C396.524 316.473 395.491 307.42 399.25 306.837Z" fill="#263238"/>
<path d="M401.209 307.208C401.976 307.579 402.797 308.373 403.644 308.32C404.491 308.267 405.259 307.208 405.788 306.202C405.788 306.202 405.921 306.202 405.947 306.202C406.185 307.923 405.947 309.776 404.227 310.332C402.506 310.888 401.579 309.458 400.838 307.685C400.706 307.552 400.891 307.076 401.209 307.208Z" fill="#263238"/>
<path d="M384.903 334.368C385.671 334.924 386.465 335.718 387.55 335.666C388.59 335.497 389.583 335.109 390.462 334.527C390.462 334.527 390.647 334.527 390.594 334.527C390.272 335.135 389.792 335.644 389.205 336.003C388.619 336.361 387.946 336.556 387.259 336.566C386.651 336.511 386.073 336.275 385.601 335.888C385.129 335.5 384.784 334.98 384.612 334.395C384.585 334.368 384.797 334.289 384.903 334.368Z" fill="#263238"/>
<path d="M383.022 326.982C383.881 327.953 384.931 328.736 386.106 329.283C387.281 329.829 388.556 330.127 389.852 330.159C390.984 330.183 392.114 330.058 393.214 329.788L393.849 329.603L394.431 329.418C394.576 329.375 394.7 329.282 394.783 329.156C394.865 329.03 394.9 328.879 394.881 328.729C394.897 328.642 394.897 328.552 394.881 328.465V328.253C394.59 326.135 393.902 322.958 393.902 322.958C394.723 323.223 398.905 324.361 398.667 323.276C396.953 313.864 394.293 304.649 390.725 295.772C390.699 295.716 390.654 295.672 390.598 295.646C390.542 295.62 390.479 295.614 390.419 295.63C390.359 295.645 390.307 295.681 390.271 295.732C390.235 295.782 390.218 295.843 390.222 295.904C391.784 304.64 394.828 313.005 396.523 321.741C395.034 321.312 393.492 321.098 391.943 321.105C391.652 321.105 393.399 327.168 393.452 328.147C391.758 328.595 389.991 328.695 388.257 328.44C386.523 328.186 384.859 327.581 383.366 326.665C383.022 326.585 382.784 326.797 383.022 326.982Z" fill="#263238"/>
<path d="M337.544 319.358C347.365 318.935 346.492 303.475 346.492 303.475C346.492 303.475 357.557 301.887 357.451 283.912C359.807 287.419 362.947 290.329 366.623 292.41C370.299 294.492 374.41 295.688 378.629 295.904C381.858 296.222 370.687 288.492 370.687 288.492C370.687 288.492 384.082 299.451 407.748 293.786C409.416 293.389 404.545 268.479 385.458 260.882C366.372 253.284 349.827 258.976 338.868 271.471C335.665 273.365 332.979 276.021 331.048 279.203C329.118 282.385 328.003 285.994 327.802 289.71C326.77 302.681 333.732 319.517 337.544 319.358Z" fill="#263238"/>
<path d="M344.081 323.912C344.081 323.912 334.392 311.47 328.701 314.991C323.009 318.512 330.792 336.883 337.807 339.08C338.687 339.42 339.626 339.579 340.569 339.547C341.511 339.515 342.438 339.294 343.293 338.896C344.148 338.498 344.914 337.932 345.545 337.231C346.176 336.531 346.66 335.71 346.967 334.818L344.081 323.912Z" fill="#AD6359"/>
<path d="M331.059 320.312V320.497C335.982 322.191 338.762 326.532 340.774 331.086C340.47 330.618 340.068 330.221 339.595 329.923C339.123 329.626 338.592 329.434 338.039 329.361C337.485 329.288 336.923 329.335 336.389 329.501C335.856 329.666 335.365 329.945 334.95 330.318C334.818 330.318 334.95 330.609 334.95 330.583C335.783 330.267 336.694 330.218 337.556 330.44C338.419 330.663 339.192 331.147 339.768 331.827C340.714 332.979 341.548 334.221 342.256 335.533C342.495 335.956 343.262 335.692 343.077 335.189C342.918 328.836 337.703 320.47 331.059 320.312Z" fill="#263238"/>
<path d="M342.44 336.936C342.465 337.338 342.371 337.738 342.169 338.087C341.966 338.435 341.666 338.716 341.304 338.893C340.943 339.071 340.536 339.137 340.137 339.084C339.738 339.031 339.363 338.861 339.061 338.595C338.758 338.33 338.541 337.98 338.437 337.591C338.332 337.202 338.346 336.791 338.475 336.409C338.604 336.028 338.844 335.693 339.163 335.448C339.482 335.202 339.867 335.057 340.269 335.03C340.537 335.012 340.806 335.047 341.06 335.133C341.314 335.219 341.549 335.355 341.75 335.532C341.952 335.709 342.117 335.924 342.235 336.165C342.353 336.406 342.423 336.668 342.44 336.936Z" fill="white"/>
<path d="M348.82 309.749L331.48 309.67L331.851 305.09L348.978 307.155L348.82 309.749Z" fill="#E78A53"/>
<path d="M349.563 305.355L332.488 302.205L333.68 297.758L350.172 302.84L349.563 305.355Z" fill="#E78A53"/>
<path d="M312.447 398.086C304.506 418.602 274.831 515.595 287.617 551.227C295.558 573.092 372.883 616.189 392.472 625.798C401.023 629.981 432.18 574.892 428.395 565.468C424.609 556.044 350.779 519.698 345.961 513.822C345.961 513.822 343.314 444.677 341.831 407.934C340.402 373.096 327.431 359.728 312.447 398.086Z" fill="#AD6359"/>
<path d="M477.872 597.156C488.805 601.841 506.991 598.956 506.144 607.744C505.297 615.686 492.458 616.348 492.458 616.348C492.458 616.348 507.203 620.16 503.92 628.313C500.638 636.467 486.396 634.455 486.396 634.455C486.396 634.455 498.811 637.102 494.946 645.043C491.081 652.985 478.64 653.462 478.64 653.462C478.64 653.462 481.684 656.638 476.442 661.006C468.924 667.253 448.303 662.833 438.058 657.962C427.813 653.091 393.982 627.731 388.873 623.76L419.528 557.845C419.528 557.845 441.711 558.083 452.935 559.592C464.159 561.101 499.791 576.322 496.614 585.429C493.437 594.535 468.474 583.337 461.75 581.934C455.027 580.531 453.571 581.934 456.112 584.846C457.78 586.726 473.028 595.091 477.872 597.156Z" fill="#AD6359"/>
<path d="M491.848 616.083C473.873 615.871 466.064 612.694 451.213 603.085C450.922 602.9 450.578 603.297 450.843 603.509C464.529 614.23 473.768 619.656 491.874 616.956C492.774 616.798 492.695 616.083 491.848 616.083Z" fill="#263238"/>
<path d="M487.163 634.296C468.5 632.47 459.976 629.002 443.696 620.16C443.645 620.144 443.59 620.146 443.54 620.165C443.49 620.184 443.448 620.219 443.421 620.265C443.393 620.311 443.382 620.365 443.389 620.418C443.395 620.471 443.42 620.52 443.458 620.557C458.706 630.643 468.05 635.832 486.898 635.223C487.772 635.329 488.01 634.376 487.163 634.296Z" fill="#263238"/>
<path d="M478.454 653.223C460.559 650.152 451.056 646.843 436.337 636.175C436.271 636.119 436.184 636.091 436.098 636.099C436.011 636.106 435.93 636.148 435.874 636.215C435.818 636.281 435.791 636.368 435.798 636.455C435.806 636.541 435.847 636.622 435.914 636.678C449.838 649.04 461.671 653.249 478.269 653.779C479.46 653.858 479.593 653.435 478.454 653.223Z" fill="#263238"/>
<path d="M348.608 456.563L286.584 468.555C286.584 468.555 306.703 401.978 318.139 384.056C331.03 363.911 338.522 374.897 343.578 397.054C348.634 419.211 348.608 456.563 348.608 456.563Z" fill="#E78A53"/>
<path d="M336.988 421.409C336.993 422.359 336.716 423.289 336.191 424.08C335.667 424.872 334.919 425.491 334.042 425.857C333.166 426.223 332.2 426.32 331.268 426.136C330.336 425.952 329.48 425.495 328.808 424.823C328.137 424.151 327.68 423.295 327.496 422.363C327.312 421.431 327.409 420.466 327.775 419.589C328.141 418.713 328.759 417.965 329.551 417.44C330.343 416.916 331.273 416.638 332.223 416.644C333.485 416.651 334.693 417.155 335.585 418.047C336.477 418.939 336.981 420.147 336.988 421.409ZM315.069 389.483C313.825 391.945 312.422 394.778 311.204 397.901C312.018 398.544 313.026 398.889 314.063 398.881C314.69 398.884 315.311 398.764 315.891 398.525C316.47 398.287 316.997 397.936 317.44 397.493C317.883 397.05 318.234 396.523 318.473 395.944C318.711 395.364 318.832 394.743 318.828 394.116C318.837 393.027 318.467 391.969 317.781 391.124C317.095 390.279 316.136 389.699 315.069 389.483ZM314.196 444.863C313.254 444.868 312.336 445.152 311.556 445.679C310.775 446.205 310.169 446.951 309.812 447.823C309.456 448.694 309.365 449.651 309.552 450.573C309.739 451.496 310.195 452.343 310.862 453.006C311.529 453.67 312.379 454.121 313.302 454.303C314.226 454.485 315.182 454.389 316.052 454.027C316.921 453.666 317.663 453.055 318.186 452.272C318.708 451.489 318.987 450.569 318.987 449.628C318.98 448.362 318.472 447.15 317.574 446.257C316.676 445.364 315.462 444.863 314.196 444.863ZM348.609 445.26C347.742 445.637 347.007 446.263 346.497 447.059C345.987 447.855 345.726 448.785 345.746 449.73C345.765 450.675 346.066 451.592 346.609 452.366C347.152 453.14 347.913 453.735 348.794 454.075C348.609 452.09 348.609 449.045 348.609 445.26Z" fill="white"/>
<path d="M293.203 455.743C295.294 455.002 314.592 450.978 318.801 450.21C323.011 449.442 340.217 446.08 344.638 445.63C344.662 445.62 344.689 445.616 344.715 445.618C344.741 445.62 344.767 445.629 344.789 445.643C344.811 445.658 344.829 445.677 344.841 445.7C344.854 445.724 344.86 445.75 344.86 445.776C344.86 445.802 344.854 445.828 344.841 445.852C344.829 445.875 344.811 445.894 344.789 445.909C344.767 445.923 344.741 445.932 344.715 445.934C344.689 445.936 344.662 445.932 344.638 445.922C340.403 447.192 323.09 450.634 318.801 451.507C314.513 452.381 295.347 455.928 293.177 456.034C293.018 456.034 293.018 455.796 293.203 455.743Z" fill="#263238"/>
<path d="M343.765 457.463C345.618 456.96 348.503 456.325 348.503 456.325C348.503 448.966 345.538 411.852 344.956 402.878C344.956 402.719 345.168 402.719 345.168 402.878C345.838 407.943 346.456 412.99 347.021 418.02C347.021 417.385 347.021 416.749 347.021 416.114C347.153 413.811 347.339 411.534 347.392 409.258C347.392 409.046 347.683 409.019 347.683 409.258C347.841 411.558 347.841 413.867 347.683 416.167C347.55 417.808 347.339 419.396 347.1 421.011C347.418 423.923 347.762 426.809 348 429.721C348.742 438.668 349.827 447.907 349.88 456.881C347.809 457.432 345.691 457.786 343.553 457.94C343.527 457.966 343.5 457.543 343.765 457.463Z" fill="#263238"/>
<path d="M292.594 467.284C290.609 467.867 288.65 468.343 286.665 468.873L286.029 469.031V468.343C287.746 460.147 289.974 452.066 292.7 444.148C294.05 440.177 295.347 436.206 297.068 432.368C298.789 428.529 300.298 424.664 302.151 420.905C300.959 424.929 299.662 428.847 298.392 432.844L294.527 444.757L286.85 468.581L286.373 468.052C288.518 467.787 290.556 467.496 292.594 467.284Z" fill="#263238"/>
<path d="M296.75 435.703C296.188 434.052 296.043 432.288 296.327 430.568C296.425 429.669 296.611 428.783 296.883 427.92C297.152 427.096 297.516 426.305 297.968 425.564C297.988 427.256 297.873 428.947 297.624 430.621C297.386 432.394 297.147 434.141 296.75 435.703Z" fill="#263238"/>
<path d="M593.395 288.545C595.629 288.277 597.891 288.728 599.853 289.832C601.814 290.936 603.372 292.637 604.301 294.687C604.301 294.687 609.093 285.766 617.537 286.375C621.852 286.692 625.135 293.866 625.135 293.866C625.135 293.866 629.291 286.904 636.703 287.91C642.633 288.704 645.042 295.852 645.042 295.852C645.042 295.852 652.136 291.007 657.907 293.76C669.581 299.319 668.099 350.569 648.986 357.928C640.091 361.37 641.044 348.875 641.044 348.875C641.044 348.875 635.221 366.479 624.658 366.426C614.096 366.373 616.399 350.251 616.399 350.251C616.399 350.251 610.602 367.246 599.642 366.135C588.233 364.943 593.342 349.193 593.342 349.193C593.342 349.193 585.4 360.364 577.115 357.558C563.587 352.952 582.753 328.836 580.397 317.506L559.537 312.211C559.537 312.211 584.209 289.26 593.395 288.545Z" fill="#AD6359"/>
<path d="M645.519 296.698C645.519 296.539 645.757 296.486 645.783 296.698C649.613 314.344 647.979 332.737 641.098 349.43C640.886 349.96 639.933 349.801 640.065 349.166C644.436 332.037 646.273 314.36 645.519 296.698Z" fill="#263238"/>
<path d="M625.189 293.496C625.189 293.31 625.507 293.284 625.559 293.496C629.186 310.994 627.201 333.204 616.877 350.649C616.533 351.258 615.606 351.443 615.977 350.649C621.959 338.604 626.142 310.041 625.189 293.496Z" fill="#263238"/>
<path d="M592.15 349.987C601.389 332.886 604.222 314.541 604.407 295.269C604.407 295.031 604.778 295.058 604.83 295.269C607.292 304.72 605.889 316.977 603.983 326.427C602.383 335.216 598.504 343.432 592.733 350.252C592.574 350.596 592.15 350.358 592.15 349.987Z" fill="#263238"/>
<path d="M640.622 349.669C639.542 353.237 637.927 356.62 635.831 359.702C633.809 363.014 630.646 365.472 626.936 366.611C624.984 367.129 622.918 367.017 621.033 366.294C619.137 365.435 617.654 363.867 616.903 361.926C615.623 358.256 615.304 354.319 615.977 350.49L617.75 350.966C616.389 354.554 614.429 357.883 611.953 360.814C609.461 363.91 605.937 366.006 602.026 366.717C600.012 366.995 597.961 366.748 596.07 366.003C595.113 365.587 594.251 364.98 593.536 364.22C592.822 363.46 592.27 362.562 591.914 361.582C590.842 357.82 590.944 353.822 592.205 350.119L593.317 350.728C592.091 352.117 590.735 353.385 589.267 354.514C587.815 355.657 586.211 356.593 584.502 357.293C582.775 357.996 580.902 358.26 579.048 358.061C577.232 357.76 575.55 356.91 574.23 355.626C575.624 356.755 577.317 357.454 579.101 357.637C580.866 357.716 582.622 357.352 584.21 356.579C587.353 354.955 590.114 352.681 592.311 349.908L594.084 347.79L593.423 350.437C592.368 353.888 592.368 357.575 593.423 361.026C593.703 361.792 594.139 362.491 594.705 363.079C595.27 363.667 595.951 364.13 596.705 364.441C598.293 365.034 600.007 365.207 601.682 364.944C605.124 364.275 608.213 362.397 610.391 359.649C612.726 356.906 614.603 353.804 615.95 350.464L618.809 343.396L617.724 350.94C617.074 354.428 617.31 358.024 618.412 361.396C618.971 362.966 620.107 364.263 621.589 365.023C623.18 365.624 624.916 365.725 626.566 365.314C630.038 364.327 633.06 362.166 635.116 359.199C637.382 356.292 639.235 353.085 640.622 349.669Z" fill="#263238"/>
<path d="M686.232 903.198C734.581 903.198 773.775 864.004 773.775 815.655C773.775 767.307 734.581 728.112 686.232 728.112C637.884 728.112 598.689 767.307 598.689 815.655C598.689 864.004 637.884 903.198 686.232 903.198Z" fill="#E78A53"/>
<path d="M695.232 761.573H677.258V869.711H695.232V761.573Z" fill="white"/>
<path d="M740.314 824.656V806.682H632.176V824.656H740.314Z" fill="white"/>
</svg>
